<?xml version="1.0" encoding="UTF-8" standalone="no"?><svg xmlns="http://www.w3.org/2000/svg" xmlns:xlink="http://www.w3.org/1999/xlink" clip-rule="evenodd" stroke-miterlimit="4.00" viewBox="0 0 1920 1080"><desc>SVG generated by Keynote</desc><defs></defs><g transform="matrix(1.00, 0.00, -0.00, -1.00, 0.0, 1080.0)"><path d="M 0.0 1080.0 L 1920.0 1080.0 L 1920.0 0.0 L 0.0 0.0 Z M 0.0 1080.0 " fill="#FEFFFE"></path><text xml:space="preserve" font-family="HelveticaNeue-Light" font-size="80.0" fill="#000000" transform="matrix(1.00, 0.00, -0.00, -1.00, 459.0, 618.0)">D</text><text xml:space="preserve" font-family="HelveticaNeue-Light" font-size="80.0" fill="#000000" transform="matrix(1.00, 0.00, -0.00, -1.00, 513.8, 618.0)">e</text><text xml:space="preserve" font-family="HelveticaNeue-Light" font-size="80.0" fill="#000000" transform="matrix(1.00, 0.00, -0.00, -1.00, 555.3, 618.0)">a</text><text xml:space="preserve" font-family="HelveticaNeue-Light" font-size="80.0" fill="#000000" transform="matrix(1.00, 0.00, -0.00, -1.00, 596.8, 618.0)">l</text><text xml:space="preserve" font-family="HelveticaNeue-Light" font-size="80.0" fill="#000000" transform="matrix(1.00, 0.00, -0.00, -1.00, 611.6, 618.0)"> </text><text xml:space="preserve" font-family="HelveticaNeue-Light" font-size="80.0" fill="#000000" transform="matrix(1.00, 0.00, -0.00, -1.00, 633.9, 618.0)">w</text><text xml:space="preserve" font-family="HelveticaNeue-Light" font-size="80.0" fill="#000000" transform="matrix(1.00, 0.00, -0.00, -1.00, 693.2, 618.0)">i</text><text xml:space="preserve" font-family="HelveticaNeue-Light" font-size="80.0" fill="#000000" transform="matrix(1.00, 0.00, -0.00, -1.00, 708.0, 618.0)">t</text><text xml:space="preserve" font-family="HelveticaNeue-Light" font-size="80.0" fill="#000000" transform="matrix(1.00, 0.00, -0.00, -1.00, 731.6, 618.0)">h</text><text xml:space="preserve" font-family="HelveticaNeue-Light" font-size="80.0" fill="#000000" transform="matrix(1.00, 0.00, -0.00, -1.00, 774.6, 618.0)"> </text><text xml:space="preserve" font-family="HelveticaNeue-Light" font-size="80.0" fill="#000000" transform="matrix(1.00, 0.00, -0.00, -1.00, 796.8, 618.0)">i</text><text xml:space="preserve" font-family="HelveticaNeue-Light" font-size="80.0" fill="#000000" transform="matrix(1.00, 0.00, -0.00, -1.00, 811.6, 618.0)">m</text><text xml:space="preserve" font-family="HelveticaNeue-Light" font-size="80.0" fill="#000000" transform="matrix(1.00, 0.00, -0.00, -1.00, 878.3, 618.0)">p</text><text xml:space="preserve" font-family="HelveticaNeue-Light" font-size="80.0" fill="#000000" transform="matrix(1.00, 0.00, -0.00, -1.00, 924.2, 618.0)">o</text><text xml:space="preserve" font-family="HelveticaNeue-Light" font-size="80.0" fill="#000000" transform="matrix(1.00, 0.00, -0.00, -1.00, 968.7, 618.0)">s</text><text xml:space="preserve" font-family="HelveticaNeue-Light" font-size="80.0" fill="#000000" transform="matrix(1.00, 0.00, -0.00, -1.00, 1007.2, 618.0)">t</text><text xml:space="preserve" font-family="HelveticaNeue-Light" font-size="80.0" fill="#000000" transform="matrix(1.00, 0.00, -0.00, -1.00, 1030.8, 618.0)">e</text><text xml:space="preserve" font-family="HelveticaNeue-Light" font-size="80.0" fill="#000000" transform="matrix(1.00, 0.00, -0.00, -1.00, 1072.4, 618.0)">r</text><text xml:space="preserve" font-family="HelveticaNeue-Light" font-size="80.0" fill="#000000" transform="matrix(1.00, 0.00, -0.00, -1.00, 1097.6, 618.0)"> </text><text xml:space="preserve" font-family="HelveticaNeue-Light" font-size="80.0" fill="#000000" transform="matrix(1.00, 0.00, -0.00, -1.00, 1119.8, 618.0)">s</text><text xml:space="preserve" font-family="HelveticaNeue-Light" font-size="80.0" fill="#000000" transform="matrix(1.00, 0.00, -0.00, -1.00, 1158.3, 618.0)">y</text><text xml:space="preserve" font-family="HelveticaNeue-Light" font-size="80.0" fill="#000000" transform="matrix(1.00, 0.00, -0.00, -1.00, 1195.3, 618.0)">n</text><text xml:space="preserve" font-family="HelveticaNeue-Light" font-size="80.0" fill="#000000" transform="matrix(1.00, 0.00, -0.00, -1.00, 1238.3, 618.0)">d</text><text xml:space="preserve" font-family="HelveticaNeue-Light" font-size="80.0" fill="#000000" transform="matrix(1.00, 0.00, -0.00, -1.00, 1284.2, 618.0)">r</text><text xml:space="preserve" font-family="HelveticaNeue-Light" font-size="80.0" fill="#000000" transform="matrix(1.00, 0.00, -0.00, -1.00, 1308.0, 618.0)">o</text><text xml:space="preserve" font-family="HelveticaNeue-Light" font-size="80.0" fill="#000000" transform="matrix(1.00, 0.00, -0.00, -1.00, 1352.4, 618.0)">m</text><text xml:space="preserve" font-family="HelveticaNeue-Light" font-size="80.0" fill="#000000" transform="matrix(1.00, 0.00, -0.00, -1.00, 1419.1, 618.0)">e</text><image xlink:href="2658115018616FA9C3F39BC86C89C471.png" width="961.00" height="116.00" transform="matrix(1.02, 0.00, -0.00, -1.02, 472.0, 498.0)"></image></g></svg>