<?xml version="1.0" encoding="UTF-8" standalone="no"?><svg xmlns="http://www.w3.org/2000/svg" xmlns:xlink="http://www.w3.org/1999/xlink" clip-rule="evenodd" stroke-miterlimit="4.00" viewBox="0 0 1920 1080"><desc>SVG generated by Keynote</desc><defs></defs><g transform="matrix(1.00, 0.00, -0.00, -1.00, 0.0, 1080.0)"><path d="M 0.0 1080.0 L 1920.0 1080.0 L 1920.0 0.0 L 0.0 0.0 Z M 0.0 1080.0 " fill="#1A2A35"></path><image xlink:href="../../1CA1790B-E434-4A31-B398-0C77A6B9314F/assets/97519169F7A297CECEE507090532DAB0.png" width="960.00" height="101.00" transform="matrix(1.51, 0.00, -0.00, -1.52, 235.0, 606.0)"></image><text xml:space="preserve" font-family="HelveticaNeue-Light" font-size="104.0" fill="#FEFFFF" transform="matrix(1.00, 0.00, -0.00, -1.00, 550.0, 911.0)">B</text><text xml:space="preserve" font-family="HelveticaNeue-Light" font-size="104.0" fill="#FEFFFF" transform="matrix(1.00, 0.00, -0.00, -1.00, 619.4, 911.0)">a</text><text xml:space="preserve" font-family="HelveticaNeue-Light" font-size="104.0" fill="#FEFFFF" transform="matrix(1.00, 0.00, -0.00, -1.00, 673.3, 911.0)">b</text><text xml:space="preserve" font-family="HelveticaNeue-Light" font-size="104.0" fill="#FEFFFF" transform="matrix(1.00, 0.00, -0.00, -1.00, 733.0, 911.0)">e</text><text xml:space="preserve" font-family="HelveticaNeue-Light" font-size="104.0" fill="#FEFFFF" transform="matrix(1.00, 0.00, -0.00, -1.00, 787.0, 911.0)">l</text><text xml:space="preserve" font-family="HelveticaNeue-Light" font-size="104.0" fill="#FEFFFF" transform="matrix(1.00, 0.00, -0.00, -1.00, 806.3, 911.0)"> </text><text xml:space="preserve" font-family="HelveticaNeue-Light" font-size="104.0" fill="#FEFFFF" transform="matrix(1.00, 0.00, -0.00, -1.00, 835.2, 911.0)">a</text><text xml:space="preserve" font-family="HelveticaNeue-Light" font-size="104.0" fill="#FEFFFF" transform="matrix(1.00, 0.00, -0.00, -1.00, 889.1, 911.0)">s</text><text xml:space="preserve" font-family="HelveticaNeue-Light" font-size="104.0" fill="#FEFFFF" transform="matrix(1.00, 0.00, -0.00, -1.00, 939.2, 911.0)"> </text><text xml:space="preserve" font-family="HelveticaNeue-Light" font-size="104.0" fill="#FEFFFF" transform="matrix(1.00, 0.00, -0.00, -1.00, 968.1, 911.0)">C</text><text xml:space="preserve" font-family="HelveticaNeue-Light" font-size="104.0" fill="#FEFFFF" transform="matrix(1.00, 0.00, -0.00, -1.00, 1041.3, 911.0)">o</text><text xml:space="preserve" font-family="HelveticaNeue-Light" font-size="104.0" fill="#FEFFFF" transform="matrix(1.00, 0.00, -0.00, -1.00, 1099.1, 911.0)">m</text><text xml:space="preserve" font-family="HelveticaNeue-Light" font-size="104.0" fill="#FEFFFF" transform="matrix(1.00, 0.00, -0.00, -1.00, 1185.8, 911.0)">p</text><text xml:space="preserve" font-family="HelveticaNeue-Light" font-size="104.0" fill="#FEFFFF" transform="matrix(1.00, 0.00, -0.00, -1.00, 1245.4, 911.0)">i</text><text xml:space="preserve" font-family="HelveticaNeue-Light" font-size="104.0" fill="#FEFFFF" transform="matrix(1.00, 0.00, -0.00, -1.00, 1264.7, 911.0)">l</text><text xml:space="preserve" font-family="HelveticaNeue-Light" font-size="104.0" fill="#FEFFFF" transform="matrix(1.00, 0.00, -0.00, -1.00, 1283.9, 911.0)">e</text><text xml:space="preserve" font-family="HelveticaNeue-Light" font-size="104.0" fill="#FEFFFF" transform="matrix(1.00, 0.00, -0.00, -1.00, 1337.9, 911.0)">r</text><g><clipPath id="clip-139"><path d="M 223.6 337.3 L 719.2 337.3 L 719.2 448.9 L 223.6 448.9 Z M 223.6 337.3 "></path></clipPath><g clip-path="url(#clip-139)"><text xml:space="preserve" font-family="HelveticaNeue-Light" font-size="62.0" fill="#FEFFFE" transform="matrix(1.00, 0.00, -0.00, -1.00, 275.0, 371.0)">S</text><text xml:space="preserve" font-family="HelveticaNeue-Light" font-size="62.0" fill="#FEFFFE" transform="matrix(1.00, 0.00, -0.00, -1.00, 314.1, 371.0)">t</text><text xml:space="preserve" font-family="HelveticaNeue-Light" font-size="62.0" fill="#FEFFFE" transform="matrix(1.00, 0.00, -0.00, -1.00, 332.4, 371.0)">r</text><text xml:space="preserve" font-family="HelveticaNeue-Light" font-size="62.0" fill="#FEFFFE" transform="matrix(1.00, 0.00, -0.00, -1.00, 351.9, 371.0)">i</text><text xml:space="preserve" font-family="HelveticaNeue-Light" font-size="62.0" fill="#FEFFFE" transform="matrix(1.00, 0.00, -0.00, -1.00, 363.4, 371.0)">n</text><text xml:space="preserve" font-family="HelveticaNeue-Light" font-size="62.0" fill="#FEFFFE" transform="matrix(1.00, 0.00, -0.00, -1.00, 396.7, 371.0)">g</text><text xml:space="preserve" font-family="HelveticaNeue-Light" font-size="62.0" fill="#FEFFFE" transform="matrix(1.00, 0.00, -0.00, -1.00, 431.2, 371.0)"> </text><text xml:space="preserve" font-family="HelveticaNeue-Light" font-size="62.0" fill="#FEFFFE" transform="matrix(1.00, 0.00, -0.00, -1.00, 448.4, 371.0)">(</text><text xml:space="preserve" font-family="HelveticaNeue-Light" font-size="62.0" fill="#FEFFFE" transform="matrix(1.00, 0.00, -0.00, -1.00, 463.4, 371.0)">i</text><text xml:space="preserve" font-family="HelveticaNeue-Light" font-size="62.0" fill="#FEFFFE" transform="matrix(1.00, 0.00, -0.00, -1.00, 474.8, 371.0)">n</text><text xml:space="preserve" font-family="HelveticaNeue-Light" font-size="62.0" fill="#FEFFFE" transform="matrix(1.00, 0.00, -0.00, -1.00, 508.1, 371.0)">p</text><text xml:space="preserve" font-family="HelveticaNeue-Light" font-size="62.0" fill="#FEFFFE" transform="matrix(1.00, 0.00, -0.00, -1.00, 543.7, 371.0)">u</text><text xml:space="preserve" font-family="HelveticaNeue-Light" font-size="62.0" fill="#FEFFFE" transform="matrix(1.00, 0.00, -0.00, -1.00, 577.0, 371.0)">t</text><text xml:space="preserve" font-family="HelveticaNeue-Light" font-size="62.0" fill="#FEFFFE" transform="matrix(1.00, 0.00, -0.00, -1.00, 595.4, 371.0)">.</text><text xml:space="preserve" font-family="HelveticaNeue-Light" font-size="62.0" fill="#FEFFFE" transform="matrix(1.00, 0.00, -0.00, -1.00, 612.6, 371.0)">j</text><text xml:space="preserve" font-family="HelveticaNeue-Light" font-size="62.0" fill="#FEFFFE" transform="matrix(1.00, 0.00, -0.00, -1.00, 624.1, 371.0)">s</text><text xml:space="preserve" font-family="HelveticaNeue-Light" font-size="62.0" fill="#FEFFFE" transform="matrix(1.00, 0.00, -0.00, -1.00, 653.9, 371.0)">)</text></g></g><g><clipPath id="clip-140"><path d="M 329.3 683.1 L 613.5 683.1 L 613.5 794.7 L 329.3 794.7 Z M 329.3 683.1 "></path></clipPath><g clip-path="url(#clip-140)"><text xml:space="preserve" font-family="HelveticaNeue-Light" font-size="62.0" fill="#FEFFFE" transform="matrix(1.00, 0.00, -0.00, -1.00, 366.0, 716.0)">b</text><text xml:space="preserve" font-family="HelveticaNeue-Light" font-size="62.0" fill="#FEFFFE" transform="matrix(1.00, 0.00, -0.00, -1.00, 401.6, 716.0)">a</text><text xml:space="preserve" font-family="HelveticaNeue-Light" font-size="62.0" fill="#FEFFFE" transform="matrix(1.00, 0.00, -0.00, -1.00, 433.8, 716.0)">b</text><text xml:space="preserve" font-family="HelveticaNeue-Light" font-size="62.0" fill="#FEFFFE" transform="matrix(1.00, 0.00, -0.00, -1.00, 469.4, 716.0)">y</text><text xml:space="preserve" font-family="HelveticaNeue-Light" font-size="62.0" fill="#FEFFFE" transform="matrix(1.00, 0.00, -0.00, -1.00, 498.1, 716.0)">l</text><text xml:space="preserve" font-family="HelveticaNeue-Light" font-size="62.0" fill="#FEFFFE" transform="matrix(1.00, 0.00, -0.00, -1.00, 509.5, 716.0)">o</text><text xml:space="preserve" font-family="HelveticaNeue-Light" font-size="62.0" fill="#FEFFFE" transform="matrix(1.00, 0.00, -0.00, -1.00, 544.0, 716.0)">n</text></g></g><g><clipPath id="clip-141"><path d="M 283.9 105.9 L 622.3 105.9 L 622.3 253.4 L 283.9 253.4 Z M 283.9 105.9 "></path></clipPath><g clip-path="url(#clip-141)"><image xlink:href="../../86F9D223-FC8F-4F6A-ABBD-A7CA99345104/assets/27944983290ADE459F5AA54A2C91B5BF.png" width="156.00" height="68.00" transform="matrix(2.17, 0.00, -0.00, -2.16, 284.0, 253.0)"></image></g></g><g><clipPath id="clip-142"><path d="M 1196.2 314.5 L 1695.4 314.5 L 1695.4 426.1 L 1196.2 426.1 Z M 1196.2 314.5 "></path></clipPath><g clip-path="url(#clip-142)"><text xml:space="preserve" font-family="HelveticaNeue-Light" font-size="62.0" fill="#FEFFFE" transform="matrix(1.00, 0.00, -0.00, -1.00, 1228.0, 348.0)">S</text><text xml:space="preserve" font-family="HelveticaNeue-Light" font-size="62.0" fill="#FEFFFE" transform="matrix(1.00, 0.00, -0.00, -1.00, 1267.1, 348.0)">t</text><text xml:space="preserve" font-family="HelveticaNeue-Light" font-size="62.0" fill="#FEFFFE" transform="matrix(1.00, 0.00, -0.00, -1.00, 1285.4, 348.0)">r</text><text xml:space="preserve" font-family="HelveticaNeue-Light" font-size="62.0" fill="#FEFFFE" transform="matrix(1.00, 0.00, -0.00, -1.00, 1304.9, 348.0)">i</text><text xml:space="preserve" font-family="HelveticaNeue-Light" font-size="62.0" fill="#FEFFFE" transform="matrix(1.00, 0.00, -0.00, -1.00, 1316.4, 348.0)">n</text><text xml:space="preserve" font-family="HelveticaNeue-Light" font-size="62.0" fill="#FEFFFE" transform="matrix(1.00, 0.00, -0.00, -1.00, 1349.7, 348.0)">g</text><text xml:space="preserve" font-family="HelveticaNeue-Light" font-size="62.0" fill="#FEFFFE" transform="matrix(1.00, 0.00, -0.00, -1.00, 1384.2, 348.0)"> </text><text xml:space="preserve" font-family="HelveticaNeue-Light" font-size="62.0" fill="#FEFFFE" transform="matrix(1.00, 0.00, -0.00, -1.00, 1401.4, 348.0)">(</text><text xml:space="preserve" font-family="HelveticaNeue-Light" font-size="62.0" fill="#FEFFFE" transform="matrix(1.00, 0.00, -0.00, -1.00, 1416.4, 348.0)">o</text><text xml:space="preserve" font-family="HelveticaNeue-Light" font-size="62.0" fill="#FEFFFE" transform="matrix(1.00, 0.00, -0.00, -1.00, 1450.8, 348.0)">u</text><text xml:space="preserve" font-family="HelveticaNeue-Light" font-size="62.0" fill="#FEFFFE" transform="matrix(1.00, 0.00, -0.00, -1.00, 1484.1, 348.0)">t</text><text xml:space="preserve" font-family="HelveticaNeue-Light" font-size="62.0" fill="#FEFFFE" transform="matrix(1.00, 0.00, -0.00, -1.00, 1502.5, 348.0)">p</text><text xml:space="preserve" font-family="HelveticaNeue-Light" font-size="62.0" fill="#FEFFFE" transform="matrix(1.00, 0.00, -0.00, -1.00, 1538.1, 348.0)">u</text><text xml:space="preserve" font-family="HelveticaNeue-Light" font-size="62.0" fill="#FEFFFE" transform="matrix(1.00, 0.00, -0.00, -1.00, 1571.4, 348.0)">t</text><text xml:space="preserve" font-family="HelveticaNeue-Light" font-size="62.0" fill="#FEFFFE" transform="matrix(1.00, 0.00, -0.00, -1.00, 1589.7, 348.0)">.</text><text xml:space="preserve" font-family="HelveticaNeue-Light" font-size="62.0" fill="#FEFFFE" transform="matrix(1.00, 0.00, -0.00, -1.00, 1606.9, 348.0)">j</text><text xml:space="preserve" font-family="HelveticaNeue-Light" font-size="62.0" fill="#FEFFFE" transform="matrix(1.00, 0.00, -0.00, -1.00, 1618.4, 348.0)">s</text><text xml:space="preserve" font-family="HelveticaNeue-Light" font-size="62.0" fill="#FEFFFE" transform="matrix(1.00, 0.00, -0.00, -1.00, 1648.2, 348.0)">)</text></g></g><g><clipPath id="clip-143"><path d="M 1191.9 617.3 L 1699.7 617.3 L 1699.7 803.8 L 1191.9 803.8 Z M 1191.9 617.3 "></path></clipPath><g clip-path="url(#clip-143)"><text xml:space="preserve" font-family="HelveticaNeue-Light" font-size="62.0" fill="#FEFFFE" transform="matrix(1.00, 0.00, -0.00, -1.00, 1233.0, 726.0)">b</text><text xml:space="preserve" font-family="HelveticaNeue-Light" font-size="62.0" fill="#FEFFFE" transform="matrix(1.00, 0.00, -0.00, -1.00, 1268.6, 726.0)">a</text><text xml:space="preserve" font-family="HelveticaNeue-Light" font-size="62.0" fill="#FEFFFE" transform="matrix(1.00, 0.00, -0.00, -1.00, 1300.8, 726.0)">b</text><text xml:space="preserve" font-family="HelveticaNeue-Light" font-size="62.0" fill="#FEFFFE" transform="matrix(1.00, 0.00, -0.00, -1.00, 1336.4, 726.0)">e</text><text xml:space="preserve" font-family="HelveticaNeue-Light" font-size="62.0" fill="#FEFFFE" transform="matrix(1.00, 0.00, -0.00, -1.00, 1368.5, 726.0)">l</text><text xml:space="preserve" font-family="HelveticaNeue-Light" font-size="62.0" fill="#FEFFFE" transform="matrix(1.00, 0.00, -0.00, -1.00, 1380.0, 726.0)">-</text><text xml:space="preserve" font-family="HelveticaNeue-Light" font-size="62.0" fill="#FEFFFE" transform="matrix(1.00, 0.00, -0.00, -1.00, 1402.9, 726.0)">g</text><text xml:space="preserve" font-family="HelveticaNeue-Light" font-size="62.0" fill="#FEFFFE" transform="matrix(1.00, 0.00, -0.00, -1.00, 1437.4, 726.0)">e</text><text xml:space="preserve" font-family="HelveticaNeue-Light" font-size="62.0" fill="#FEFFFE" transform="matrix(1.00, 0.00, -0.00, -1.00, 1469.6, 726.0)">n</text><text xml:space="preserve" font-family="HelveticaNeue-Light" font-size="62.0" fill="#FEFFFE" transform="matrix(1.00, 0.00, -0.00, -1.00, 1502.9, 726.0)">e</text><text xml:space="preserve" font-family="HelveticaNeue-Light" font-size="62.0" fill="#FEFFFE" transform="matrix(1.00, 0.00, -0.00, -1.00, 1535.1, 726.0)">r</text><text xml:space="preserve" font-family="HelveticaNeue-Light" font-size="62.0" fill="#FEFFFE" transform="matrix(1.00, 0.00, -0.00, -1.00, 1554.6, 726.0)">a</text><text xml:space="preserve" font-family="HelveticaNeue-Light" font-size="62.0" fill="#FEFFFE" transform="matrix(1.00, 0.00, -0.00, -1.00, 1586.8, 726.0)">t</text><text xml:space="preserve" font-family="HelveticaNeue-Light" font-size="62.0" fill="#FEFFFE" transform="matrix(1.00, 0.00, -0.00, -1.00, 1605.1, 726.0)">o</text><text xml:space="preserve" font-family="HelveticaNeue-Light" font-size="62.0" fill="#FEFFFE" transform="matrix(1.00, 0.00, -0.00, -1.00, 1639.6, 726.0)">r</text><text xml:space="preserve" font-family="HelveticaNeue-Light" font-size="62.0" fill="#FEFFFE" transform="matrix(1.00, 0.00, -0.00, -1.00, 1659.1, 726.0)"> </text><text xml:space="preserve" font-family="HelveticaNeue-Light" font-size="62.0" fill="#FEFFFE" transform="matrix(1.00, 0.00, -0.00, -1.00, 1353.0, 651.0)">p</text><text xml:space="preserve" font-family="HelveticaNeue-Light" font-size="62.0" fill="#FEFFFE" transform="matrix(1.00, 0.00, -0.00, -1.00, 1388.6, 651.0)">r</text><text xml:space="preserve" font-family="HelveticaNeue-Light" font-size="62.0" fill="#FEFFFE" transform="matrix(1.00, 0.00, -0.00, -1.00, 1407.0, 651.0)">e</text><text xml:space="preserve" font-family="HelveticaNeue-Light" font-size="62.0" fill="#FEFFFE" transform="matrix(1.00, 0.00, -0.00, -1.00, 1439.2, 651.0)">t</text><text xml:space="preserve" font-family="HelveticaNeue-Light" font-size="62.0" fill="#FEFFFE" transform="matrix(1.00, 0.00, -0.00, -1.00, 1457.5, 651.0)">t</text><text xml:space="preserve" font-family="HelveticaNeue-Light" font-size="62.0" fill="#FEFFFE" transform="matrix(1.00, 0.00, -0.00, -1.00, 1475.9, 651.0)">i</text><text xml:space="preserve" font-family="HelveticaNeue-Light" font-size="62.0" fill="#FEFFFE" transform="matrix(1.00, 0.00, -0.00, -1.00, 1487.4, 651.0)">e</text><text xml:space="preserve" font-family="HelveticaNeue-Light" font-size="62.0" fill="#FEFFFE" transform="matrix(1.00, 0.00, -0.00, -1.00, 1519.5, 651.0)">r</text></g></g><g><clipPath id="clip-144"><path d="M 1230.8 113.0 L 1660.8 113.0 L 1660.8 251.7 L 1230.8 251.7 Z M 1230.8 113.0 "></path></clipPath><g clip-path="url(#clip-144)"><image xlink:href="../../5689AB12-EC7E-4CB5-98E9-581BD44F9925/assets/D28F7E3193B99F8ADAB17364B4DCACA8.png" width="248.00" height="80.00" transform="matrix(1.73, 0.00, -0.00, -1.74, 1231.0, 252.0)"></image></g></g><g><clipPath id="clip-145"><path d="M 751.3 346.0 L 1151.1 346.0 L 1151.1 457.6 L 751.3 457.6 Z M 751.3 346.0 "></path></clipPath><g clip-path="url(#clip-145)"><text xml:space="preserve" font-family="HelveticaNeue-Light" font-size="62.0" fill="#FEFFFE" transform="matrix(1.00, 0.00, -0.00, -1.00, 780.0, 379.0)">A</text><text xml:space="preserve" font-family="HelveticaNeue-Light" font-size="62.0" fill="#FEFFFE" transform="matrix(1.00, 0.00, -0.00, -1.00, 819.1, 379.0)">S</text><text xml:space="preserve" font-family="HelveticaNeue-Light" font-size="62.0" fill="#FEFFFE" transform="matrix(1.00, 0.00, -0.00, -1.00, 858.1, 379.0)">T</text><text xml:space="preserve" font-family="HelveticaNeue-Light" font-size="62.0" fill="#FEFFFE" transform="matrix(1.00, 0.00, -0.00, -1.00, 885.7, 379.0)">s</text><text xml:space="preserve" font-family="HelveticaNeue-Light" font-size="62.0" fill="#FEFFFE" transform="matrix(1.00, 0.00, -0.00, -1.00, 915.5, 379.0)"> </text><text xml:space="preserve" font-family="HelveticaNeue-Light" font-size="62.0" fill="#FEFFFE" transform="matrix(1.00, 0.00, -0.00, -1.00, 932.8, 379.0)">(</text><text xml:space="preserve" font-family="HelveticaNeue-Light" font-size="62.0" fill="#FEFFFE" transform="matrix(1.00, 0.00, -0.00, -1.00, 947.7, 379.0)">J</text><text xml:space="preserve" font-family="HelveticaNeue-Light" font-size="62.0" fill="#FEFFFE" transform="matrix(1.00, 0.00, -0.00, -1.00, 978.7, 379.0)">S</text><text xml:space="preserve" font-family="HelveticaNeue-Light" font-size="62.0" fill="#FEFFFE" transform="matrix(1.00, 0.00, -0.00, -1.00, 1017.8, 379.0)">O</text><text xml:space="preserve" font-family="HelveticaNeue-Light" font-size="62.0" fill="#FEFFFE" transform="matrix(1.00, 0.00, -0.00, -1.00, 1063.7, 379.0)">N</text><text xml:space="preserve" font-family="HelveticaNeue-Light" font-size="62.0" fill="#FEFFFE" transform="matrix(1.00, 0.00, -0.00, -1.00, 1107.4, 379.0)">)</text></g></g><g><clipPath id="clip-146"><path d="M 745.6 661.4 L 1182.9 661.4 L 1182.9 772.9 L 745.6 772.9 Z M 745.6 661.4 "></path></clipPath><g clip-path="url(#clip-146)"><text xml:space="preserve" font-family="HelveticaNeue-Light" font-size="62.0" fill="#FEFFFE" transform="matrix(1.00, 0.00, -0.00, -1.00, 775.0, 695.0)">J</text><text xml:space="preserve" font-family="HelveticaNeue-Light" font-size="62.0" fill="#FEFFFE" transform="matrix(1.00, 0.00, -0.00, -1.00, 806.0, 695.0)">S</text><text xml:space="preserve" font-family="HelveticaNeue-Light" font-size="62.0" fill="#FEFFFE" transform="matrix(1.00, 0.00, -0.00, -1.00, 845.1, 695.0)">X</text><text xml:space="preserve" font-family="HelveticaNeue-Light" font-size="62.0" fill="#FEFFFE" transform="matrix(1.00, 0.00, -0.00, -1.00, 880.6, 695.0)"> </text><text xml:space="preserve" font-family="HelveticaNeue-Light" font-size="62.0" fill="#FEFFFE" transform="matrix(1.00, 0.00, -0.00, -1.00, 897.9, 695.0)">t</text><text xml:space="preserve" font-family="HelveticaNeue-Light" font-size="62.0" fill="#FEFFFE" transform="matrix(1.00, 0.00, -0.00, -1.00, 916.2, 695.0)">r</text><text xml:space="preserve" font-family="HelveticaNeue-Light" font-size="62.0" fill="#FEFFFE" transform="matrix(1.00, 0.00, -0.00, -1.00, 935.8, 695.0)">a</text><text xml:space="preserve" font-family="HelveticaNeue-Light" font-size="62.0" fill="#FEFFFE" transform="matrix(1.00, 0.00, -0.00, -1.00, 967.9, 695.0)">n</text><text xml:space="preserve" font-family="HelveticaNeue-Light" font-size="62.0" fill="#FEFFFE" transform="matrix(1.00, 0.00, -0.00, -1.00, 1001.2, 695.0)">s</text><text xml:space="preserve" font-family="HelveticaNeue-Light" font-size="62.0" fill="#FEFFFE" transform="matrix(1.00, 0.00, -0.00, -1.00, 1031.1, 695.0)">f</text><text xml:space="preserve" font-family="HelveticaNeue-Light" font-size="62.0" fill="#FEFFFE" transform="matrix(1.00, 0.00, -0.00, -1.00, 1047.1, 695.0)">o</text><text xml:space="preserve" font-family="HelveticaNeue-Light" font-size="62.0" fill="#FEFFFE" transform="matrix(1.00, 0.00, -0.00, -1.00, 1081.6, 695.0)">r</text><text xml:space="preserve" font-family="HelveticaNeue-Light" font-size="62.0" fill="#FEFFFE" transform="matrix(1.00, 0.00, -0.00, -1.00, 1101.1, 695.0)">m</text></g></g><g><clipPath id="clip-147"><path d="M 716.3 117.2 L 1176.9 117.2 L 1176.9 295.8 L 716.3 295.8 Z M 716.3 117.2 "></path></clipPath><g clip-path="url(#clip-147)"><image xlink:href="../../CB06CB66-8777-4818-B145-5F689215C9E7/assets/29DD4EE2C48925543272005C65DC68D0.png" width="461.00" height="178.00" transform="matrix(1.00, 0.00, -0.00, -1.01, 716.0, 296.0)"></image></g></g></g></svg>