<?xml version="1.0" encoding="UTF-8" standalone="no"?><svg xmlns="http://www.w3.org/2000/svg" xmlns:xlink="http://www.w3.org/1999/xlink" clip-rule="evenodd" stroke-miterlimit="4.00" viewBox="0 0 461 647"><desc>SVG generated by Keynote</desc><defs></defs><g transform="matrix(1.00, 0.00, -0.00, -1.00, 0.0, 647.0)"><g><clipPath id="clip-136"><path d="M 35.3 229.0 L 435.1 229.0 L 435.1 340.6 L 35.3 340.6 Z M 35.3 229.0 "></path></clipPath><g clip-path="url(#clip-136)"><text xml:space="preserve" font-family="HelveticaNeue-Light" font-size="62.0" fill="#FEFFFE" transform="matrix(1.00, 0.00, -0.00, -1.00, 64.0, 262.0)">A</text><text xml:space="preserve" font-family="HelveticaNeue-Light" font-size="62.0" fill="#FEFFFE" transform="matrix(1.00, 0.00, -0.00, -1.00, 103.1, 262.0)">S</text><text xml:space="preserve" font-family="HelveticaNeue-Light" font-size="62.0" fill="#FEFFFE" transform="matrix(1.00, 0.00, -0.00, -1.00, 142.1, 262.0)">T</text><text xml:space="preserve" font-family="HelveticaNeue-Light" font-size="62.0" fill="#FEFFFE" transform="matrix(1.00, 0.00, -0.00, -1.00, 169.7, 262.0)">s</text><text xml:space="preserve" font-family="HelveticaNeue-Light" font-size="62.0" fill="#FEFFFE" transform="matrix(1.00, 0.00, -0.00, -1.00, 199.5, 262.0)"> </text><text xml:space="preserve" font-family="HelveticaNeue-Light" font-size="62.0" fill="#FEFFFE" transform="matrix(1.00, 0.00, -0.00, -1.00, 216.8, 262.0)">(</text><text xml:space="preserve" font-family="HelveticaNeue-Light" font-size="62.0" fill="#FEFFFE" transform="matrix(1.00, 0.00, -0.00, -1.00, 231.7, 262.0)">J</text><text xml:space="preserve" font-family="HelveticaNeue-Light" font-size="62.0" fill="#FEFFFE" transform="matrix(1.00, 0.00, -0.00, -1.00, 262.7, 262.0)">S</text><text xml:space="preserve" font-family="HelveticaNeue-Light" font-size="62.0" fill="#FEFFFE" transform="matrix(1.00, 0.00, -0.00, -1.00, 301.8, 262.0)">O</text><text xml:space="preserve" font-family="HelveticaNeue-Light" font-size="62.0" fill="#FEFFFE" transform="matrix(1.00, 0.00, -0.00, -1.00, 347.7, 262.0)">N</text><text xml:space="preserve" font-family="HelveticaNeue-Light" font-size="62.0" fill="#FEFFFE" transform="matrix(1.00, 0.00, -0.00, -1.00, 391.4, 262.0)">)</text></g></g><g><clipPath id="clip-137"><path d="M 29.6 544.4 L 466.9 544.4 L 466.9 655.9 L 29.6 655.9 Z M 29.6 544.4 "></path></clipPath><g clip-path="url(#clip-137)"><text xml:space="preserve" font-family="HelveticaNeue-Light" font-size="62.0" fill="#FEFFFE" transform="matrix(1.00, 0.00, -0.00, -1.00, 59.0, 578.0)">J</text><text xml:space="preserve" font-family="HelveticaNeue-Light" font-size="62.0" fill="#FEFFFE" transform="matrix(1.00, 0.00, -0.00, -1.00, 90.0, 578.0)">S</text><text xml:space="preserve" font-family="HelveticaNeue-Light" font-size="62.0" fill="#FEFFFE" transform="matrix(1.00, 0.00, -0.00, -1.00, 129.1, 578.0)">X</text><text xml:space="preserve" font-family="HelveticaNeue-Light" font-size="62.0" fill="#FEFFFE" transform="matrix(1.00, 0.00, -0.00, -1.00, 164.6, 578.0)"> </text><text xml:space="preserve" font-family="HelveticaNeue-Light" font-size="62.0" fill="#FEFFFE" transform="matrix(1.00, 0.00, -0.00, -1.00, 181.9, 578.0)">t</text><text xml:space="preserve" font-family="HelveticaNeue-Light" font-size="62.0" fill="#FEFFFE" transform="matrix(1.00, 0.00, -0.00, -1.00, 200.2, 578.0)">r</text><text xml:space="preserve" font-family="HelveticaNeue-Light" font-size="62.0" fill="#FEFFFE" transform="matrix(1.00, 0.00, -0.00, -1.00, 219.8, 578.0)">a</text><text xml:space="preserve" font-family="HelveticaNeue-Light" font-size="62.0" fill="#FEFFFE" transform="matrix(1.00, 0.00, -0.00, -1.00, 251.9, 578.0)">n</text><text xml:space="preserve" font-family="HelveticaNeue-Light" font-size="62.0" fill="#FEFFFE" transform="matrix(1.00, 0.00, -0.00, -1.00, 285.2, 578.0)">s</text><text xml:space="preserve" font-family="HelveticaNeue-Light" font-size="62.0" fill="#FEFFFE" transform="matrix(1.00, 0.00, -0.00, -1.00, 315.1, 578.0)">f</text><text xml:space="preserve" font-family="HelveticaNeue-Light" font-size="62.0" fill="#FEFFFE" transform="matrix(1.00, 0.00, -0.00, -1.00, 331.1, 578.0)">o</text><text xml:space="preserve" font-family="HelveticaNeue-Light" font-size="62.0" fill="#FEFFFE" transform="matrix(1.00, 0.00, -0.00, -1.00, 365.6, 578.0)">r</text><text xml:space="preserve" font-family="HelveticaNeue-Light" font-size="62.0" fill="#FEFFFE" transform="matrix(1.00, 0.00, -0.00, -1.00, 385.1, 578.0)">m</text></g></g><g><clipPath id="clip-138"><path d="M 0.3 0.2 L 460.9 0.2 L 460.9 178.8 L 0.3 178.8 Z M 0.3 0.2 "></path></clipPath><g clip-path="url(#clip-138)"><image xlink:href="../../CB06CB66-8777-4818-B145-5F689215C9E7/assets/29DD4EE2C48925543272005C65DC68D0.png" width="461.00" height="178.00" transform="matrix(1.00, 0.00, -0.00, -1.01, 0.0, 179.0)"></image></g></g></g></svg>