<?xml version="1.0" encoding="UTF-8" standalone="no"?><svg xmlns="http://www.w3.org/2000/svg" xmlns:xlink="http://www.w3.org/1999/xlink" clip-rule="evenodd" stroke-miterlimit="4.00" viewBox="0 0 1920 1080"><desc>SVG generated by Keynote</desc><defs></defs><g transform="matrix(1.00, 0.00, -0.00, -1.00, 0.0, 1080.0)"><path d="M 0.0 1080.0 L 1920.0 1080.0 L 1920.0 0.0 L 0.0 0.0 Z M 0.0 1080.0 " fill="#FEFFFE"></path><text xml:space="preserve" font-family="HelveticaNeue-Light" font-size="80.0" fill="#000000" transform="matrix(1.00, 0.00, -0.00, -1.00, 599.0, 880.0)">R</text><text xml:space="preserve" font-family="HelveticaNeue-Light" font-size="80.0" fill="#000000" transform="matrix(1.00, 0.00, -0.00, -1.00, 652.4, 880.0)">e</text><text xml:space="preserve" font-family="HelveticaNeue-Light" font-size="80.0" fill="#000000" transform="matrix(1.00, 0.00, -0.00, -1.00, 693.9, 880.0)">a</text><text xml:space="preserve" font-family="HelveticaNeue-Light" font-size="80.0" fill="#000000" transform="matrix(1.00, 0.00, -0.00, -1.00, 735.4, 880.0)">d</text><text xml:space="preserve" font-family="HelveticaNeue-Light" font-size="80.0" fill="#000000" transform="matrix(1.00, 0.00, -0.00, -1.00, 781.3, 880.0)"> </text><text xml:space="preserve" font-family="HelveticaNeue-Light" font-size="80.0" fill="#000000" transform="matrix(1.00, 0.00, -0.00, -1.00, 803.6, 880.0)">p</text><text xml:space="preserve" font-family="HelveticaNeue-Light" font-size="80.0" fill="#000000" transform="matrix(1.00, 0.00, -0.00, -1.00, 849.5, 880.0)">e</text><text xml:space="preserve" font-family="HelveticaNeue-Light" font-size="80.0" fill="#000000" transform="matrix(1.00, 0.00, -0.00, -1.00, 891.0, 880.0)">o</text><text xml:space="preserve" font-family="HelveticaNeue-Light" font-size="80.0" fill="#000000" transform="matrix(1.00, 0.00, -0.00, -1.00, 935.5, 880.0)">p</text><text xml:space="preserve" font-family="HelveticaNeue-Light" font-size="80.0" fill="#000000" transform="matrix(1.00, 0.00, -0.00, -1.00, 981.4, 880.0)">l</text><text xml:space="preserve" font-family="HelveticaNeue-Light" font-size="80.0" fill="#000000" transform="matrix(1.00, 0.00, -0.00, -1.00, 996.2, 880.0)">e</text><text xml:space="preserve" font-family="HelveticaNeue-Light" font-size="80.0" fill="#000000" transform="matrix(1.00, 0.00, -0.00, -1.00, 1037.7, 880.0)">’</text><text xml:space="preserve" font-family="HelveticaNeue-Light" font-size="80.0" fill="#000000" transform="matrix(1.00, 0.00, -0.00, -1.00, 1051.1, 880.0)">s</text><text xml:space="preserve" font-family="HelveticaNeue-Light" font-size="80.0" fill="#000000" transform="matrix(1.00, 0.00, -0.00, -1.00, 1089.6, 880.0)"> </text><text xml:space="preserve" font-family="HelveticaNeue-Light" font-size="80.0" fill="#000000" transform="matrix(1.00, 0.00, -0.00, -1.00, 1111.8, 880.0)">m</text><text xml:space="preserve" font-family="HelveticaNeue-Light" font-size="80.0" fill="#000000" transform="matrix(1.00, 0.00, -0.00, -1.00, 1178.4, 880.0)">i</text><text xml:space="preserve" font-family="HelveticaNeue-Light" font-size="80.0" fill="#000000" transform="matrix(1.00, 0.00, -0.00, -1.00, 1193.2, 880.0)">n</text><text xml:space="preserve" font-family="HelveticaNeue-Light" font-size="80.0" fill="#000000" transform="matrix(1.00, 0.00, -0.00, -1.00, 1236.2, 880.0)">d</text><text xml:space="preserve" font-family="HelveticaNeue-Light" font-size="80.0" fill="#000000" transform="matrix(1.00, 0.00, -0.00, -1.00, 1282.1, 880.0)">s</text><image xlink:href="../../07CDF453-2546-4486-9948-8565DC0DC8C9/assets/4144B027626418396DF15D99DB9A5694.png" width="946.00" height="310.00" transform="matrix(1.66, 0.00, -0.00, -1.66, 174.0, 718.0)"></image></g></svg>