<?xml version="1.0" encoding="UTF-8" standalone="no"?><svg xmlns="http://www.w3.org/2000/svg" xmlns:xlink="http://www.w3.org/1999/xlink" clip-rule="evenodd" stroke-miterlimit="4.00" viewBox="0 0 1920 1080"><desc>SVG generated by Keynote</desc><defs></defs><g transform="matrix(1.00, 0.00, -0.00, -1.00, 0.0, 1080.0)"><path d="M 0.0 1080.0 L 1920.0 1080.0 L 1920.0 0.0 L 0.0 0.0 Z M 0.0 1080.0 " fill="#FEFFFE"></path><text xml:space="preserve" font-family="HelveticaNeue-Light" font-size="90.0" fill="#000000" transform="matrix(1.00, 0.00, -0.00, -1.00, 514.0, 886.0)">W</text><text xml:space="preserve" font-family="HelveticaNeue-Light" font-size="90.0" fill="#000000" transform="matrix(1.00, 0.00, -0.00, -1.00, 595.6, 886.0)">h</text><text xml:space="preserve" font-family="HelveticaNeue-Light" font-size="90.0" fill="#000000" transform="matrix(1.00, 0.00, -0.00, -1.00, 644.0, 886.0)">a</text><text xml:space="preserve" font-family="HelveticaNeue-Light" font-size="90.0" fill="#000000" transform="matrix(1.00, 0.00, -0.00, -1.00, 690.7, 886.0)">t</text><text xml:space="preserve" font-family="HelveticaNeue-Light" font-size="90.0" fill="#000000" transform="matrix(1.00, 0.00, -0.00, -1.00, 717.3, 886.0)"> </text><text xml:space="preserve" font-family="HelveticaNeue-Light" font-size="90.0" fill="#000000" transform="matrix(1.00, 0.00, -0.00, -1.00, 742.3, 886.0)">a</text><text xml:space="preserve" font-family="HelveticaNeue-Light" font-size="90.0" fill="#000000" transform="matrix(1.00, 0.00, -0.00, -1.00, 789.0, 886.0)">b</text><text xml:space="preserve" font-family="HelveticaNeue-Light" font-size="90.0" fill="#000000" transform="matrix(1.00, 0.00, -0.00, -1.00, 840.7, 886.0)">o</text><text xml:space="preserve" font-family="HelveticaNeue-Light" font-size="90.0" fill="#000000" transform="matrix(1.00, 0.00, -0.00, -1.00, 890.7, 886.0)">u</text><text xml:space="preserve" font-family="HelveticaNeue-Light" font-size="90.0" fill="#000000" transform="matrix(1.00, 0.00, -0.00, -1.00, 939.1, 886.0)">t</text><text xml:space="preserve" font-family="HelveticaNeue-Light" font-size="90.0" fill="#000000" transform="matrix(1.00, 0.00, -0.00, -1.00, 965.7, 886.0)"> </text><text xml:space="preserve" font-family="HelveticaNeue-Light" font-size="90.0" fill="#000000" transform="matrix(1.00, 0.00, -0.00, -1.00, 990.7, 886.0)">t</text><text xml:space="preserve" font-family="HelveticaNeue-Light" font-size="90.0" fill="#000000" transform="matrix(1.00, 0.00, -0.00, -1.00, 1017.4, 886.0)">h</text><text xml:space="preserve" font-family="HelveticaNeue-Light" font-size="90.0" fill="#000000" transform="matrix(1.00, 0.00, -0.00, -1.00, 1065.7, 886.0)">e</text><text xml:space="preserve" font-family="HelveticaNeue-Light" font-size="90.0" fill="#000000" transform="matrix(1.00, 0.00, -0.00, -1.00, 1112.4, 886.0)"> </text><text xml:space="preserve" font-family="HelveticaNeue-Light" font-size="90.0" fill="#000000" transform="matrix(1.00, 0.00, -0.00, -1.00, 1137.4, 886.0)">f</text><text xml:space="preserve" font-family="HelveticaNeue-Light" font-size="90.0" fill="#000000" transform="matrix(1.00, 0.00, -0.00, -1.00, 1160.7, 886.0)">u</text><text xml:space="preserve" font-family="HelveticaNeue-Light" font-size="90.0" fill="#000000" transform="matrix(1.00, 0.00, -0.00, -1.00, 1209.1, 886.0)">t</text><text xml:space="preserve" font-family="HelveticaNeue-Light" font-size="90.0" fill="#000000" transform="matrix(1.00, 0.00, -0.00, -1.00, 1235.7, 886.0)">u</text><text xml:space="preserve" font-family="HelveticaNeue-Light" font-size="90.0" fill="#000000" transform="matrix(1.00, 0.00, -0.00, -1.00, 1284.0, 886.0)">r</text><text xml:space="preserve" font-family="HelveticaNeue-Light" font-size="90.0" fill="#000000" transform="matrix(1.00, 0.00, -0.00, -1.00, 1310.8, 886.0)">e</text><text xml:space="preserve" font-family="HelveticaNeue-Light" font-size="90.0" fill="#000000" transform="matrix(1.00, 0.00, -0.00, -1.00, 1357.5, 886.0)">?</text><image xlink:href="../../29F116CB-35D9-4B81-9BF4-0E02075885F7/assets/3F3BF086D7789E25AE1F69FA6CB1825B.png" width="840.00" height="540.00" transform="matrix(1.37, 0.00, -0.00, -1.37, 383.0, 809.0)"></image></g></svg>