<?xml version="1.0" encoding="UTF-8" standalone="no"?><svg xmlns="http://www.w3.org/2000/svg" xmlns:xlink="http://www.w3.org/1999/xlink" clip-rule="evenodd" stroke-miterlimit="4.00" viewBox="0 0 873 651"><desc>SVG generated by Keynote</desc><defs></defs><g transform="matrix(1.00, 0.00, -0.00, -1.00, 0.0, 651.0)"><g><clipPath id="clip-150"><path d="M 210.0 538.0 L 664.3 538.0 L 664.3 664.3 L 210.0 664.3 Z M 210.0 538.0 "></path></clipPath><g clip-path="url(#clip-150)"><text xml:space="preserve" font-family="HelveticaNeue-Light" font-size="70.0" fill="#CACACA" transform="matrix(1.00, 0.00, -0.00, -1.00, 231.0, 576.0)">A</text><text xml:space="preserve" font-family="HelveticaNeue-Light" font-size="70.0" fill="#CACACA" transform="matrix(1.00, 0.00, -0.00, -1.00, 275.1, 576.0)">s</text><text xml:space="preserve" font-family="HelveticaNeue-Light" font-size="70.0" fill="#CACACA" transform="matrix(1.00, 0.00, -0.00, -1.00, 308.8, 576.0)"> </text><text xml:space="preserve" font-family="HelveticaNeue-Light" font-size="70.0" fill="#CACACA" transform="matrix(1.00, 0.00, -0.00, -1.00, 328.2, 576.0)">a</text><text xml:space="preserve" font-family="HelveticaNeue-Light" font-size="70.0" fill="#CACACA" transform="matrix(1.00, 0.00, -0.00, -1.00, 364.6, 576.0)"> </text><text xml:space="preserve" font-family="HelveticaNeue-Light" font-size="70.0" fill="#CACACA" transform="matrix(1.00, 0.00, -0.00, -1.00, 384.0, 576.0)">c</text><text xml:space="preserve" font-family="HelveticaNeue-Light" font-size="70.0" fill="#CACACA" transform="matrix(1.00, 0.00, -0.00, -1.00, 420.4, 576.0)">o</text><text xml:space="preserve" font-family="HelveticaNeue-Light" font-size="70.0" fill="#CACACA" transform="matrix(1.00, 0.00, -0.00, -1.00, 459.3, 576.0)">m</text><text xml:space="preserve" font-family="HelveticaNeue-Light" font-size="70.0" fill="#CACACA" transform="matrix(1.00, 0.00, -0.00, -1.00, 517.6, 576.0)">p</text><text xml:space="preserve" font-family="HelveticaNeue-Light" font-size="70.0" fill="#CACACA" transform="matrix(1.00, 0.00, -0.00, -1.00, 557.8, 576.0)">i</text><text xml:space="preserve" font-family="HelveticaNeue-Light" font-size="70.0" fill="#CACACA" transform="matrix(1.00, 0.00, -0.00, -1.00, 570.7, 576.0)">l</text><text xml:space="preserve" font-family="HelveticaNeue-Light" font-size="70.0" fill="#CACACA" transform="matrix(1.00, 0.00, -0.00, -1.00, 583.7, 576.0)">e</text><text xml:space="preserve" font-family="HelveticaNeue-Light" font-size="70.0" fill="#CACACA" transform="matrix(1.00, 0.00, -0.00, -1.00, 620.0, 576.0)">r</text></g></g><g><clipPath id="clip-151"><path d="M 9.6 235.8 L 1663.3 235.8 L 1663.3 447.1 L 9.6 447.1 Z M 9.6 235.8 "></path></clipPath><g clip-path="url(#clip-151)"><text xml:space="preserve" font-family="HelveticaNeue-Light" font-size="70.0" fill="#000000" transform="matrix(1.00, 0.00, -0.00, -1.00, 40.0, 358.0)">A</text><text xml:space="preserve" font-family="HelveticaNeue-Light" font-size="70.0" fill="#000000" transform="matrix(1.00, 0.00, -0.00, -1.00, 84.1, 358.0)">s</text><text xml:space="preserve" font-family="HelveticaNeue-Light" font-size="70.0" fill="#000000" transform="matrix(1.00, 0.00, -0.00, -1.00, 117.8, 358.0)"> </text><text xml:space="preserve" font-family="HelveticaNeue-Light" font-size="70.0" fill="#000000" transform="matrix(1.00, 0.00, -0.00, -1.00, 137.2, 358.0)">a</text><text xml:space="preserve" font-family="HelveticaNeue-Light" font-size="70.0" fill="#000000" transform="matrix(1.00, 0.00, -0.00, -1.00, 173.6, 358.0)">n</text><text xml:space="preserve" font-family="HelveticaNeue-Light" font-size="70.0" fill="#000000" transform="matrix(1.00, 0.00, -0.00, -1.00, 211.2, 358.0)"> </text><text xml:space="preserve" font-family="HelveticaNeue-Light" font-size="70.0" fill="#000000" transform="matrix(1.00, 0.00, -0.00, -1.00, 230.6, 358.0)">o</text><text xml:space="preserve" font-family="HelveticaNeue-Light" font-size="70.0" fill="#000000" transform="matrix(1.00, 0.00, -0.00, -1.00, 269.5, 358.0)">p</text><text xml:space="preserve" font-family="HelveticaNeue-Light" font-size="70.0" fill="#000000" transform="matrix(1.00, 0.00, -0.00, -1.00, 309.7, 358.0)">e</text><text xml:space="preserve" font-family="HelveticaNeue-Light" font-size="70.0" fill="#000000" transform="matrix(1.00, 0.00, -0.00, -1.00, 346.0, 358.0)">n</text><text xml:space="preserve" font-family="HelveticaNeue-Light" font-size="70.0" fill="#000000" transform="matrix(1.00, 0.00, -0.00, -1.00, 383.6, 358.0)"> </text><text xml:space="preserve" font-family="HelveticaNeue-Light" font-size="70.0" fill="#000000" transform="matrix(1.00, 0.00, -0.00, -1.00, 403.1, 358.0)">s</text><text xml:space="preserve" font-family="HelveticaNeue-Light" font-size="70.0" fill="#000000" transform="matrix(1.00, 0.00, -0.00, -1.00, 436.8, 358.0)">o</text><text xml:space="preserve" font-family="HelveticaNeue-Light" font-size="70.0" fill="#000000" transform="matrix(1.00, 0.00, -0.00, -1.00, 475.7, 358.0)">u</text><text xml:space="preserve" font-family="HelveticaNeue-Light" font-size="70.0" fill="#000000" transform="matrix(1.00, 0.00, -0.00, -1.00, 513.3, 358.0)">r</text><text xml:space="preserve" font-family="HelveticaNeue-Light" font-size="70.0" fill="#000000" transform="matrix(1.00, 0.00, -0.00, -1.00, 534.1, 358.0)">c</text><text xml:space="preserve" font-family="HelveticaNeue-Light" font-size="70.0" fill="#000000" transform="matrix(1.00, 0.00, -0.00, -1.00, 570.4, 358.0)">e</text><text xml:space="preserve" font-family="HelveticaNeue-Light" font-size="70.0" fill="#000000" transform="matrix(1.00, 0.00, -0.00, -1.00, 606.7, 358.0)"> </text><text xml:space="preserve" font-family="HelveticaNeue-Light" font-size="70.0" fill="#000000" transform="matrix(1.00, 0.00, -0.00, -1.00, 626.2, 358.0)">p</text><text xml:space="preserve" font-family="HelveticaNeue-Light" font-size="70.0" fill="#000000" transform="matrix(1.00, 0.00, -0.00, -1.00, 666.4, 358.0)">r</text><text xml:space="preserve" font-family="HelveticaNeue-Light" font-size="70.0" fill="#000000" transform="matrix(1.00, 0.00, -0.00, -1.00, 687.2, 358.0)">o</text><text xml:space="preserve" font-family="HelveticaNeue-Light" font-size="70.0" fill="#000000" transform="matrix(1.00, 0.00, -0.00, -1.00, 726.1, 358.0)">j</text><text xml:space="preserve" font-family="HelveticaNeue-Light" font-size="70.0" fill="#000000" transform="matrix(1.00, 0.00, -0.00, -1.00, 739.0, 358.0)">e</text><text xml:space="preserve" font-family="HelveticaNeue-Light" font-size="70.0" fill="#000000" transform="matrix(1.00, 0.00, -0.00, -1.00, 775.4, 358.0)">c</text><text xml:space="preserve" font-family="HelveticaNeue-Light" font-size="70.0" fill="#000000" transform="matrix(1.00, 0.00, -0.00, -1.00, 811.7, 358.0)">t</text><text xml:space="preserve" font-family="HelveticaNeue-Light" font-size="70.0" fill="#000000" transform="matrix(1.00, 0.00, -0.00, -1.00, 832.4, 358.0)"> </text><path d="M 602.0 55.1 L 808.3 55.1 " fill="none" stroke="#000000" stroke-width="3.54" stroke-miterlimit="0.00" transform="matrix(1.00, 0.00, 0.00, -1.00, 24.6, 432.0)"></path><text xml:space="preserve" font-family="HelveticaNeue-Light" font-size="70.0" fill="#000000" transform="matrix(1.00, 0.00, -0.00, -1.00, 270.0, 273.0)">c</text><text xml:space="preserve" font-family="HelveticaNeue-Light" font-size="70.0" fill="#000000" transform="matrix(1.00, 0.00, -0.00, -1.00, 306.3, 273.0)">o</text><text xml:space="preserve" font-family="HelveticaNeue-Light" font-size="70.0" fill="#000000" transform="matrix(1.00, 0.00, -0.00, -1.00, 345.2, 273.0)">m</text><text xml:space="preserve" font-family="HelveticaNeue-Light" font-size="70.0" fill="#000000" transform="matrix(1.00, 0.00, -0.00, -1.00, 403.6, 273.0)">m</text><text xml:space="preserve" font-family="HelveticaNeue-Light" font-size="70.0" fill="#000000" transform="matrix(1.00, 0.00, -0.00, -1.00, 461.9, 273.0)">u</text><text xml:space="preserve" font-family="HelveticaNeue-Light" font-size="70.0" fill="#000000" transform="matrix(1.00, 0.00, -0.00, -1.00, 499.5, 273.0)">n</text><text xml:space="preserve" font-family="HelveticaNeue-Light" font-size="70.0" fill="#000000" transform="matrix(1.00, 0.00, -0.00, -1.00, 537.0, 273.0)">i</text><text xml:space="preserve" font-family="HelveticaNeue-Light" font-size="70.0" fill="#000000" transform="matrix(1.00, 0.00, -0.00, -1.00, 550.0, 273.0)">t</text><text xml:space="preserve" font-family="HelveticaNeue-Light" font-size="70.0" fill="#000000" transform="matrix(1.00, 0.00, -0.00, -1.00, 570.7, 273.0)">y</text></g></g><g><clipPath id="clip-152"><path d="M -13.6 -15.7 L 888.0 -15.7 L 888.0 110.6 L -13.6 110.6 Z M -13.6 -15.7 "></path></clipPath><g clip-path="url(#clip-152)"><text xml:space="preserve" font-family="HelveticaNeue-Light" font-size="70.0" fill="#CACACA" transform="matrix(1.00, 0.00, -0.00, -1.00, 8.0, 22.0)">A</text><text xml:space="preserve" font-family="HelveticaNeue-Light" font-size="70.0" fill="#CACACA" transform="matrix(1.00, 0.00, -0.00, -1.00, 52.1, 22.0)">s</text><text xml:space="preserve" font-family="HelveticaNeue-Light" font-size="70.0" fill="#CACACA" transform="matrix(1.00, 0.00, -0.00, -1.00, 85.8, 22.0)"> </text><text xml:space="preserve" font-family="HelveticaNeue-Light" font-size="70.0" fill="#CACACA" transform="matrix(1.00, 0.00, -0.00, -1.00, 105.2, 22.0)">p</text><text xml:space="preserve" font-family="HelveticaNeue-Light" font-size="70.0" fill="#CACACA" transform="matrix(1.00, 0.00, -0.00, -1.00, 145.4, 22.0)">a</text><text xml:space="preserve" font-family="HelveticaNeue-Light" font-size="70.0" fill="#CACACA" transform="matrix(1.00, 0.00, -0.00, -1.00, 181.7, 22.0)">r</text><text xml:space="preserve" font-family="HelveticaNeue-Light" font-size="70.0" fill="#CACACA" transform="matrix(1.00, 0.00, -0.00, -1.00, 203.8, 22.0)">t</text><text xml:space="preserve" font-family="HelveticaNeue-Light" font-size="70.0" fill="#CACACA" transform="matrix(1.00, 0.00, -0.00, -1.00, 224.5, 22.0)"> </text><text xml:space="preserve" font-family="HelveticaNeue-Light" font-size="70.0" fill="#CACACA" transform="matrix(1.00, 0.00, -0.00, -1.00, 244.0, 22.0)">o</text><text xml:space="preserve" font-family="HelveticaNeue-Light" font-size="70.0" fill="#CACACA" transform="matrix(1.00, 0.00, -0.00, -1.00, 282.9, 22.0)">f</text><text xml:space="preserve" font-family="HelveticaNeue-Light" font-size="70.0" fill="#CACACA" transform="matrix(1.00, 0.00, -0.00, -1.00, 301.0, 22.0)"> </text><text xml:space="preserve" font-family="HelveticaNeue-Light" font-size="70.0" fill="#CACACA" transform="matrix(1.00, 0.00, -0.00, -1.00, 320.5, 22.0)">t</text><text xml:space="preserve" font-family="HelveticaNeue-Light" font-size="70.0" fill="#CACACA" transform="matrix(1.00, 0.00, -0.00, -1.00, 341.2, 22.0)">h</text><text xml:space="preserve" font-family="HelveticaNeue-Light" font-size="70.0" fill="#CACACA" transform="matrix(1.00, 0.00, -0.00, -1.00, 378.8, 22.0)">e</text><text xml:space="preserve" font-family="HelveticaNeue-Light" font-size="70.0" fill="#CACACA" transform="matrix(1.00, 0.00, -0.00, -1.00, 415.1, 22.0)"> </text><text xml:space="preserve" font-family="HelveticaNeue-Light" font-size="70.0" fill="#CACACA" transform="matrix(1.00, 0.00, -0.00, -1.00, 434.6, 22.0)">J</text><text xml:space="preserve" font-family="HelveticaNeue-Light" font-size="70.0" fill="#CACACA" transform="matrix(1.00, 0.00, -0.00, -1.00, 469.6, 22.0)">S</text><text xml:space="preserve" font-family="HelveticaNeue-Light" font-size="70.0" fill="#CACACA" transform="matrix(1.00, 0.00, -0.00, -1.00, 513.7, 22.0)"> </text><text xml:space="preserve" font-family="HelveticaNeue-Light" font-size="70.0" fill="#CACACA" transform="matrix(1.00, 0.00, -0.00, -1.00, 533.1, 22.0)">c</text><text xml:space="preserve" font-family="HelveticaNeue-Light" font-size="70.0" fill="#CACACA" transform="matrix(1.00, 0.00, -0.00, -1.00, 569.5, 22.0)">o</text><text xml:space="preserve" font-family="HelveticaNeue-Light" font-size="70.0" fill="#CACACA" transform="matrix(1.00, 0.00, -0.00, -1.00, 608.4, 22.0)">m</text><text xml:space="preserve" font-family="HelveticaNeue-Light" font-size="70.0" fill="#CACACA" transform="matrix(1.00, 0.00, -0.00, -1.00, 666.7, 22.0)">m</text><text xml:space="preserve" font-family="HelveticaNeue-Light" font-size="70.0" fill="#CACACA" transform="matrix(1.00, 0.00, -0.00, -1.00, 725.0, 22.0)">u</text><text xml:space="preserve" font-family="HelveticaNeue-Light" font-size="70.0" fill="#CACACA" transform="matrix(1.00, 0.00, -0.00, -1.00, 762.6, 22.0)">n</text><text xml:space="preserve" font-family="HelveticaNeue-Light" font-size="70.0" fill="#CACACA" transform="matrix(1.00, 0.00, -0.00, -1.00, 800.2, 22.0)">i</text><text xml:space="preserve" font-family="HelveticaNeue-Light" font-size="70.0" fill="#CACACA" transform="matrix(1.00, 0.00, -0.00, -1.00, 813.1, 22.0)">t</text><text xml:space="preserve" font-family="HelveticaNeue-Light" font-size="70.0" fill="#CACACA" transform="matrix(1.00, 0.00, -0.00, -1.00, 833.9, 22.0)">y</text></g></g></g></svg>