<?xml version="1.0" encoding="UTF-8" standalone="no"?><svg xmlns="http://www.w3.org/2000/svg" xmlns:xlink="http://www.w3.org/1999/xlink" clip-rule="evenodd" stroke-miterlimit="4.00" viewBox="0 0 1920 1080"><desc>SVG generated by Keynote</desc><defs></defs><g transform="matrix(1.00, 0.00, -0.00, -1.00, 0.0, 1080.0)"><path d="M 0.0 1080.0 L 1920.0 1080.0 L 1920.0 0.0 L 0.0 0.0 Z M 0.0 1080.0 " fill="#FEFFFE"></path><text xml:space="preserve" font-family="HelveticaNeue-Light" font-size="70.0" fill="#000000" transform="matrix(1.00, 0.00, -0.00, -1.00, 167.0, 513.0)">H</text><text xml:space="preserve" font-family="HelveticaNeue-Light" font-size="70.0" fill="#000000" transform="matrix(1.00, 0.00, -0.00, -1.00, 216.3, 513.0)">o</text><text xml:space="preserve" font-family="HelveticaNeue-Light" font-size="70.0" fill="#000000" transform="matrix(1.00, 0.00, -0.00, -1.00, 255.2, 513.0)">w</text><text xml:space="preserve" font-family="HelveticaNeue-Light" font-size="70.0" fill="#000000" transform="matrix(1.00, 0.00, -0.00, -1.00, 307.1, 513.0)"> </text><text xml:space="preserve" font-family="HelveticaNeue-Light" font-size="70.0" fill="#000000" transform="matrix(1.00, 0.00, -0.00, -1.00, 326.5, 513.0)">d</text><text xml:space="preserve" font-family="HelveticaNeue-Light" font-size="70.0" fill="#000000" transform="matrix(1.00, 0.00, -0.00, -1.00, 366.7, 513.0)">o</text><text xml:space="preserve" font-family="HelveticaNeue-Light" font-size="70.0" fill="#000000" transform="matrix(1.00, 0.00, -0.00, -1.00, 405.6, 513.0)">e</text><text xml:space="preserve" font-family="HelveticaNeue-Light" font-size="70.0" fill="#000000" transform="matrix(1.00, 0.00, -0.00, -1.00, 442.0, 513.0)">s</text><text xml:space="preserve" font-family="HelveticaNeue-Light" font-size="70.0" fill="#000000" transform="matrix(1.00, 0.00, -0.00, -1.00, 475.6, 513.0)"> </text><text xml:space="preserve" font-family="HelveticaNeue-Light" font-size="70.0" fill="#000000" transform="matrix(1.00, 0.00, -0.00, -1.00, 495.1, 513.0)">i</text><text xml:space="preserve" font-family="HelveticaNeue-Light" font-size="70.0" fill="#000000" transform="matrix(1.00, 0.00, -0.00, -1.00, 508.0, 513.0)">t</text><text xml:space="preserve" font-family="HelveticaNeue-Light" font-size="70.0" fill="#000000" transform="matrix(1.00, 0.00, -0.00, -1.00, 528.8, 513.0)"> </text><text xml:space="preserve" font-family="HelveticaNeue-Light" font-size="70.0" fill="#000000" transform="matrix(1.00, 0.00, -0.00, -1.00, 548.2, 513.0)">w</text><text xml:space="preserve" font-family="HelveticaNeue-Light" font-size="70.0" fill="#000000" transform="matrix(1.00, 0.00, -0.00, -1.00, 600.1, 513.0)">o</text><text xml:space="preserve" font-family="HelveticaNeue-Light" font-size="70.0" fill="#000000" transform="matrix(1.00, 0.00, -0.00, -1.00, 639.0, 513.0)">r</text><text xml:space="preserve" font-family="HelveticaNeue-Light" font-size="70.0" fill="#000000" transform="matrix(1.00, 0.00, -0.00, -1.00, 661.1, 513.0)">k</text><text xml:space="preserve" font-family="HelveticaNeue-Light" font-size="70.0" fill="#000000" transform="matrix(1.00, 0.00, -0.00, -1.00, 696.1, 513.0)">?</text><g><clipPath id="clip-153"><path d="M 1095.0 738.0 L 1549.3 738.0 L 1549.3 864.3 L 1095.0 864.3 Z M 1095.0 738.0 "></path></clipPath><g clip-path="url(#clip-153)"><text xml:space="preserve" font-family="HelveticaNeue-Light" font-size="70.0" fill="#CACACA" transform="matrix(1.00, 0.00, -0.00, -1.00, 1116.0, 776.0)">A</text><text xml:space="preserve" font-family="HelveticaNeue-Light" font-size="70.0" fill="#CACACA" transform="matrix(1.00, 0.00, -0.00, -1.00, 1160.1, 776.0)">s</text><text xml:space="preserve" font-family="HelveticaNeue-Light" font-size="70.0" fill="#CACACA" transform="matrix(1.00, 0.00, -0.00, -1.00, 1193.8, 776.0)"> </text><text xml:space="preserve" font-family="HelveticaNeue-Light" font-size="70.0" fill="#CACACA" transform="matrix(1.00, 0.00, -0.00, -1.00, 1213.2, 776.0)">a</text><text xml:space="preserve" font-family="HelveticaNeue-Light" font-size="70.0" fill="#CACACA" transform="matrix(1.00, 0.00, -0.00, -1.00, 1249.6, 776.0)"> </text><text xml:space="preserve" font-family="HelveticaNeue-Light" font-size="70.0" fill="#CACACA" transform="matrix(1.00, 0.00, -0.00, -1.00, 1269.0, 776.0)">c</text><text xml:space="preserve" font-family="HelveticaNeue-Light" font-size="70.0" fill="#CACACA" transform="matrix(1.00, 0.00, -0.00, -1.00, 1305.4, 776.0)">o</text><text xml:space="preserve" font-family="HelveticaNeue-Light" font-size="70.0" fill="#CACACA" transform="matrix(1.00, 0.00, -0.00, -1.00, 1344.3, 776.0)">m</text><text xml:space="preserve" font-family="HelveticaNeue-Light" font-size="70.0" fill="#CACACA" transform="matrix(1.00, 0.00, -0.00, -1.00, 1402.6, 776.0)">p</text><text xml:space="preserve" font-family="HelveticaNeue-Light" font-size="70.0" fill="#CACACA" transform="matrix(1.00, 0.00, -0.00, -1.00, 1442.8, 776.0)">i</text><text xml:space="preserve" font-family="HelveticaNeue-Light" font-size="70.0" fill="#CACACA" transform="matrix(1.00, 0.00, -0.00, -1.00, 1455.7, 776.0)">l</text><text xml:space="preserve" font-family="HelveticaNeue-Light" font-size="70.0" fill="#CACACA" transform="matrix(1.00, 0.00, -0.00, -1.00, 1468.7, 776.0)">e</text><text xml:space="preserve" font-family="HelveticaNeue-Light" font-size="70.0" fill="#CACACA" transform="matrix(1.00, 0.00, -0.00, -1.00, 1505.0, 776.0)">r</text></g></g><g><clipPath id="clip-154"><path d="M 894.6 435.8 L 2548.3 435.8 L 2548.3 647.1 L 894.6 647.1 Z M 894.6 435.8 "></path></clipPath><g clip-path="url(#clip-154)"><text xml:space="preserve" font-family="HelveticaNeue-Light" font-size="70.0" fill="#000000" transform="matrix(1.00, 0.00, -0.00, -1.00, 925.0, 558.0)">A</text><text xml:space="preserve" font-family="HelveticaNeue-Light" font-size="70.0" fill="#000000" transform="matrix(1.00, 0.00, -0.00, -1.00, 969.1, 558.0)">s</text><text xml:space="preserve" font-family="HelveticaNeue-Light" font-size="70.0" fill="#000000" transform="matrix(1.00, 0.00, -0.00, -1.00, 1002.8, 558.0)"> </text><text xml:space="preserve" font-family="HelveticaNeue-Light" font-size="70.0" fill="#000000" transform="matrix(1.00, 0.00, -0.00, -1.00, 1022.2, 558.0)">a</text><text xml:space="preserve" font-family="HelveticaNeue-Light" font-size="70.0" fill="#000000" transform="matrix(1.00, 0.00, -0.00, -1.00, 1058.6, 558.0)">n</text><text xml:space="preserve" font-family="HelveticaNeue-Light" font-size="70.0" fill="#000000" transform="matrix(1.00, 0.00, -0.00, -1.00, 1096.2, 558.0)"> </text><text xml:space="preserve" font-family="HelveticaNeue-Light" font-size="70.0" fill="#000000" transform="matrix(1.00, 0.00, -0.00, -1.00, 1115.6, 558.0)">o</text><text xml:space="preserve" font-family="HelveticaNeue-Light" font-size="70.0" fill="#000000" transform="matrix(1.00, 0.00, -0.00, -1.00, 1154.5, 558.0)">p</text><text xml:space="preserve" font-family="HelveticaNeue-Light" font-size="70.0" fill="#000000" transform="matrix(1.00, 0.00, -0.00, -1.00, 1194.7, 558.0)">e</text><text xml:space="preserve" font-family="HelveticaNeue-Light" font-size="70.0" fill="#000000" transform="matrix(1.00, 0.00, -0.00, -1.00, 1231.0, 558.0)">n</text><text xml:space="preserve" font-family="HelveticaNeue-Light" font-size="70.0" fill="#000000" transform="matrix(1.00, 0.00, -0.00, -1.00, 1268.6, 558.0)"> </text><text xml:space="preserve" font-family="HelveticaNeue-Light" font-size="70.0" fill="#000000" transform="matrix(1.00, 0.00, -0.00, -1.00, 1288.1, 558.0)">s</text><text xml:space="preserve" font-family="HelveticaNeue-Light" font-size="70.0" fill="#000000" transform="matrix(1.00, 0.00, -0.00, -1.00, 1321.8, 558.0)">o</text><text xml:space="preserve" font-family="HelveticaNeue-Light" font-size="70.0" fill="#000000" transform="matrix(1.00, 0.00, -0.00, -1.00, 1360.7, 558.0)">u</text><text xml:space="preserve" font-family="HelveticaNeue-Light" font-size="70.0" fill="#000000" transform="matrix(1.00, 0.00, -0.00, -1.00, 1398.3, 558.0)">r</text><text xml:space="preserve" font-family="HelveticaNeue-Light" font-size="70.0" fill="#000000" transform="matrix(1.00, 0.00, -0.00, -1.00, 1419.1, 558.0)">c</text><text xml:space="preserve" font-family="HelveticaNeue-Light" font-size="70.0" fill="#000000" transform="matrix(1.00, 0.00, -0.00, -1.00, 1455.4, 558.0)">e</text><text xml:space="preserve" font-family="HelveticaNeue-Light" font-size="70.0" fill="#000000" transform="matrix(1.00, 0.00, -0.00, -1.00, 1491.7, 558.0)"> </text><text xml:space="preserve" font-family="HelveticaNeue-Light" font-size="70.0" fill="#000000" transform="matrix(1.00, 0.00, -0.00, -1.00, 1511.2, 558.0)">p</text><text xml:space="preserve" font-family="HelveticaNeue-Light" font-size="70.0" fill="#000000" transform="matrix(1.00, 0.00, -0.00, -1.00, 1551.4, 558.0)">r</text><text xml:space="preserve" font-family="HelveticaNeue-Light" font-size="70.0" fill="#000000" transform="matrix(1.00, 0.00, -0.00, -1.00, 1572.2, 558.0)">o</text><text xml:space="preserve" font-family="HelveticaNeue-Light" font-size="70.0" fill="#000000" transform="matrix(1.00, 0.00, -0.00, -1.00, 1611.1, 558.0)">j</text><text xml:space="preserve" font-family="HelveticaNeue-Light" font-size="70.0" fill="#000000" transform="matrix(1.00, 0.00, -0.00, -1.00, 1624.0, 558.0)">e</text><text xml:space="preserve" font-family="HelveticaNeue-Light" font-size="70.0" fill="#000000" transform="matrix(1.00, 0.00, -0.00, -1.00, 1660.4, 558.0)">c</text><text xml:space="preserve" font-family="HelveticaNeue-Light" font-size="70.0" fill="#000000" transform="matrix(1.00, 0.00, -0.00, -1.00, 1696.7, 558.0)">t</text><text xml:space="preserve" font-family="HelveticaNeue-Light" font-size="70.0" fill="#000000" transform="matrix(1.00, 0.00, -0.00, -1.00, 1717.4, 558.0)"> </text><path d="M 602.0 55.1 L 808.3 55.1 " fill="none" stroke="#000000" stroke-width="3.54" stroke-miterlimit="0.00" transform="matrix(1.00, 0.00, 0.00, -1.00, 909.6, 632.0)"></path><text xml:space="preserve" font-family="HelveticaNeue-Light" font-size="70.0" fill="#000000" transform="matrix(1.00, 0.00, -0.00, -1.00, 1155.0, 473.0)">c</text><text xml:space="preserve" font-family="HelveticaNeue-Light" font-size="70.0" fill="#000000" transform="matrix(1.00, 0.00, -0.00, -1.00, 1191.3, 473.0)">o</text><text xml:space="preserve" font-family="HelveticaNeue-Light" font-size="70.0" fill="#000000" transform="matrix(1.00, 0.00, -0.00, -1.00, 1230.2, 473.0)">m</text><text xml:space="preserve" font-family="HelveticaNeue-Light" font-size="70.0" fill="#000000" transform="matrix(1.00, 0.00, -0.00, -1.00, 1288.6, 473.0)">m</text><text xml:space="preserve" font-family="HelveticaNeue-Light" font-size="70.0" fill="#000000" transform="matrix(1.00, 0.00, -0.00, -1.00, 1346.9, 473.0)">u</text><text xml:space="preserve" font-family="HelveticaNeue-Light" font-size="70.0" fill="#000000" transform="matrix(1.00, 0.00, -0.00, -1.00, 1384.5, 473.0)">n</text><text xml:space="preserve" font-family="HelveticaNeue-Light" font-size="70.0" fill="#000000" transform="matrix(1.00, 0.00, -0.00, -1.00, 1422.0, 473.0)">i</text><text xml:space="preserve" font-family="HelveticaNeue-Light" font-size="70.0" fill="#000000" transform="matrix(1.00, 0.00, -0.00, -1.00, 1435.0, 473.0)">t</text><text xml:space="preserve" font-family="HelveticaNeue-Light" font-size="70.0" fill="#000000" transform="matrix(1.00, 0.00, -0.00, -1.00, 1455.7, 473.0)">y</text></g></g><g><clipPath id="clip-155"><path d="M 871.4 184.3 L 1773.0 184.3 L 1773.0 310.6 L 871.4 310.6 Z M 871.4 184.3 "></path></clipPath><g clip-path="url(#clip-155)"><text xml:space="preserve" font-family="HelveticaNeue-Light" font-size="70.0" fill="#CACACA" transform="matrix(1.00, 0.00, -0.00, -1.00, 893.0, 222.0)">A</text><text xml:space="preserve" font-family="HelveticaNeue-Light" font-size="70.0" fill="#CACACA" transform="matrix(1.00, 0.00, -0.00, -1.00, 937.1, 222.0)">s</text><text xml:space="preserve" font-family="HelveticaNeue-Light" font-size="70.0" fill="#CACACA" transform="matrix(1.00, 0.00, -0.00, -1.00, 970.8, 222.0)"> </text><text xml:space="preserve" font-family="HelveticaNeue-Light" font-size="70.0" fill="#CACACA" transform="matrix(1.00, 0.00, -0.00, -1.00, 990.2, 222.0)">p</text><text xml:space="preserve" font-family="HelveticaNeue-Light" font-size="70.0" fill="#CACACA" transform="matrix(1.00, 0.00, -0.00, -1.00, 1030.4, 222.0)">a</text><text xml:space="preserve" font-family="HelveticaNeue-Light" font-size="70.0" fill="#CACACA" transform="matrix(1.00, 0.00, -0.00, -1.00, 1066.7, 222.0)">r</text><text xml:space="preserve" font-family="HelveticaNeue-Light" font-size="70.0" fill="#CACACA" transform="matrix(1.00, 0.00, -0.00, -1.00, 1088.8, 222.0)">t</text><text xml:space="preserve" font-family="HelveticaNeue-Light" font-size="70.0" fill="#CACACA" transform="matrix(1.00, 0.00, -0.00, -1.00, 1109.5, 222.0)"> </text><text xml:space="preserve" font-family="HelveticaNeue-Light" font-size="70.0" fill="#CACACA" transform="matrix(1.00, 0.00, -0.00, -1.00, 1129.0, 222.0)">o</text><text xml:space="preserve" font-family="HelveticaNeue-Light" font-size="70.0" fill="#CACACA" transform="matrix(1.00, 0.00, -0.00, -1.00, 1167.9, 222.0)">f</text><text xml:space="preserve" font-family="HelveticaNeue-Light" font-size="70.0" fill="#CACACA" transform="matrix(1.00, 0.00, -0.00, -1.00, 1186.0, 222.0)"> </text><text xml:space="preserve" font-family="HelveticaNeue-Light" font-size="70.0" fill="#CACACA" transform="matrix(1.00, 0.00, -0.00, -1.00, 1205.5, 222.0)">t</text><text xml:space="preserve" font-family="HelveticaNeue-Light" font-size="70.0" fill="#CACACA" transform="matrix(1.00, 0.00, -0.00, -1.00, 1226.2, 222.0)">h</text><text xml:space="preserve" font-family="HelveticaNeue-Light" font-size="70.0" fill="#CACACA" transform="matrix(1.00, 0.00, -0.00, -1.00, 1263.8, 222.0)">e</text><text xml:space="preserve" font-family="HelveticaNeue-Light" font-size="70.0" fill="#CACACA" transform="matrix(1.00, 0.00, -0.00, -1.00, 1300.1, 222.0)"> </text><text xml:space="preserve" font-family="HelveticaNeue-Light" font-size="70.0" fill="#CACACA" transform="matrix(1.00, 0.00, -0.00, -1.00, 1319.6, 222.0)">J</text><text xml:space="preserve" font-family="HelveticaNeue-Light" font-size="70.0" fill="#CACACA" transform="matrix(1.00, 0.00, -0.00, -1.00, 1354.6, 222.0)">S</text><text xml:space="preserve" font-family="HelveticaNeue-Light" font-size="70.0" fill="#CACACA" transform="matrix(1.00, 0.00, -0.00, -1.00, 1398.7, 222.0)"> </text><text xml:space="preserve" font-family="HelveticaNeue-Light" font-size="70.0" fill="#CACACA" transform="matrix(1.00, 0.00, -0.00, -1.00, 1418.1, 222.0)">c</text><text xml:space="preserve" font-family="HelveticaNeue-Light" font-size="70.0" fill="#CACACA" transform="matrix(1.00, 0.00, -0.00, -1.00, 1454.5, 222.0)">o</text><text xml:space="preserve" font-family="HelveticaNeue-Light" font-size="70.0" fill="#CACACA" transform="matrix(1.00, 0.00, -0.00, -1.00, 1493.4, 222.0)">m</text><text xml:space="preserve" font-family="HelveticaNeue-Light" font-size="70.0" fill="#CACACA" transform="matrix(1.00, 0.00, -0.00, -1.00, 1551.7, 222.0)">m</text><text xml:space="preserve" font-family="HelveticaNeue-Light" font-size="70.0" fill="#CACACA" transform="matrix(1.00, 0.00, -0.00, -1.00, 1610.0, 222.0)">u</text><text xml:space="preserve" font-family="HelveticaNeue-Light" font-size="70.0" fill="#CACACA" transform="matrix(1.00, 0.00, -0.00, -1.00, 1647.6, 222.0)">n</text><text xml:space="preserve" font-family="HelveticaNeue-Light" font-size="70.0" fill="#CACACA" transform="matrix(1.00, 0.00, -0.00, -1.00, 1685.2, 222.0)">i</text><text xml:space="preserve" font-family="HelveticaNeue-Light" font-size="70.0" fill="#CACACA" transform="matrix(1.00, 0.00, -0.00, -1.00, 1698.1, 222.0)">t</text><text xml:space="preserve" font-family="HelveticaNeue-Light" font-size="70.0" fill="#CACACA" transform="matrix(1.00, 0.00, -0.00, -1.00, 1718.9, 222.0)">y</text></g></g></g></svg>