<?xml version="1.0" encoding="UTF-8" standalone="no"?><svg xmlns="http://www.w3.org/2000/svg" xmlns:xlink="http://www.w3.org/1999/xlink" clip-rule="evenodd" stroke-miterlimit="4.00" viewBox="0 0 1920 1080"><desc>SVG generated by Keynote</desc><defs></defs><g transform="matrix(1.00, 0.00, -0.00, -1.00, 0.0, 1080.0)"><path d="M 0.0 1080.0 L 1920.0 1080.0 L 1920.0 0.0 L 0.0 0.0 Z M 0.0 1080.0 " fill="#FEFFFE"></path><text xml:space="preserve" font-family="HelveticaNeue-Light" font-size="100.0" fill="#000000" transform="matrix(1.00, 0.00, -0.00, -1.00, 796.0, 887.0)">B</text><text xml:space="preserve" font-family="HelveticaNeue-Light" font-size="100.0" fill="#000000" transform="matrix(1.00, 0.00, -0.00, -1.00, 862.7, 887.0)">a</text><text xml:space="preserve" font-family="HelveticaNeue-Light" font-size="100.0" fill="#000000" transform="matrix(1.00, 0.00, -0.00, -1.00, 914.6, 887.0)">b</text><text xml:space="preserve" font-family="HelveticaNeue-Light" font-size="100.0" fill="#000000" transform="matrix(1.00, 0.00, -0.00, -1.00, 972.0, 887.0)">e</text><text xml:space="preserve" font-family="HelveticaNeue-Light" font-size="100.0" fill="#000000" transform="matrix(1.00, 0.00, -0.00, -1.00, 1023.9, 887.0)">l</text><text xml:space="preserve" font-family="HelveticaNeue-Light" font-size="100.0" fill="#000000" transform="matrix(1.00, 0.00, -0.00, -1.00, 1042.4, 887.0)"> </text><text xml:space="preserve" font-family="HelveticaNeue-Light" font-size="100.0" fill="#000000" transform="matrix(1.00, 0.00, -0.00, -1.00, 1070.2, 887.0)">?</text><image xlink:href="../../F1B07FE9-A7EE-47F3-8C29-A1A0EC98568E/assets/AEA8449EA6193CBE4EAC39159D1E566C.png" width="961.00" height="361.00" transform="matrix(1.50, 0.00, -0.00, -1.50, 240.0, 767.0)"></image><image xlink:href="../../F1B07FE9-A7EE-47F3-8C29-A1A0EC98568E/assets/F1195CEEAB036871F65ED324F5A70FD6.png" width="960.00" height="483.00" transform="matrix(1.63, 0.00, -0.00, -1.63, 178.0, 821.0)"></image></g></svg>