<?xml version="1.0" encoding="UTF-8" standalone="no"?><svg xmlns="http://www.w3.org/2000/svg" xmlns:xlink="http://www.w3.org/1999/xlink" clip-rule="evenodd" stroke-miterlimit="4.00" viewBox="0 0 1920 1080"><desc>SVG generated by Keynote</desc><defs></defs><g transform="matrix(1.00, 0.00, -0.00, -1.00, 0.0, 1080.0)"><path d="M 0.0 1080.0 L 1920.0 1080.0 L 1920.0 0.0 L 0.0 0.0 Z M 0.0 1080.0 " fill="#FEFFFE"></path><text xml:space="preserve" font-family="HelveticaNeue-Light" font-size="80.0" fill="#000000" transform="matrix(1.00, 0.00, -0.00, -1.00, 412.0, 510.0)">W</text><text xml:space="preserve" font-family="HelveticaNeue-Light" font-size="80.0" fill="#000000" transform="matrix(1.00, 0.00, -0.00, -1.00, 484.6, 510.0)">h</text><text xml:space="preserve" font-family="HelveticaNeue-Light" font-size="80.0" fill="#000000" transform="matrix(1.00, 0.00, -0.00, -1.00, 527.5, 510.0)">a</text><text xml:space="preserve" font-family="HelveticaNeue-Light" font-size="80.0" fill="#000000" transform="matrix(1.00, 0.00, -0.00, -1.00, 569.0, 510.0)">t</text><text xml:space="preserve" font-family="HelveticaNeue-Light" font-size="80.0" fill="#000000" transform="matrix(1.00, 0.00, -0.00, -1.00, 592.7, 510.0)">’</text><text xml:space="preserve" font-family="HelveticaNeue-Light" font-size="80.0" fill="#000000" transform="matrix(1.00, 0.00, -0.00, -1.00, 606.1, 510.0)">s</text><text xml:space="preserve" font-family="HelveticaNeue-Light" font-size="80.0" fill="#000000" transform="matrix(1.00, 0.00, -0.00, -1.00, 644.6, 510.0)"> </text><text xml:space="preserve" font-family="HelveticaNeue-Light" font-size="80.0" fill="#000000" transform="matrix(1.00, 0.00, -0.00, -1.00, 666.8, 510.0)">t</text><text xml:space="preserve" font-family="HelveticaNeue-Light" font-size="80.0" fill="#000000" transform="matrix(1.00, 0.00, -0.00, -1.00, 690.5, 510.0)">h</text><text xml:space="preserve" font-family="HelveticaNeue-Light" font-size="80.0" fill="#000000" transform="matrix(1.00, 0.00, -0.00, -1.00, 733.4, 510.0)">e</text><text xml:space="preserve" font-family="HelveticaNeue-Light" font-size="80.0" fill="#000000" transform="matrix(1.00, 0.00, -0.00, -1.00, 775.0, 510.0)"> </text><text xml:space="preserve" font-family="HelveticaNeue-Light" font-size="80.0" fill="#000000" transform="matrix(1.00, 0.00, -0.00, -1.00, 797.2, 510.0)">f</text><text xml:space="preserve" font-family="HelveticaNeue-Light" font-size="80.0" fill="#000000" transform="matrix(1.00, 0.00, -0.00, -1.00, 817.9, 510.0)">u</text><text xml:space="preserve" font-family="HelveticaNeue-Light" font-size="80.0" fill="#000000" transform="matrix(1.00, 0.00, -0.00, -1.00, 860.9, 510.0)">t</text><text xml:space="preserve" font-family="HelveticaNeue-Light" font-size="80.0" fill="#000000" transform="matrix(1.00, 0.00, -0.00, -1.00, 884.6, 510.0)">u</text><text xml:space="preserve" font-family="HelveticaNeue-Light" font-size="80.0" fill="#000000" transform="matrix(1.00, 0.00, -0.00, -1.00, 927.5, 510.0)">r</text><text xml:space="preserve" font-family="HelveticaNeue-Light" font-size="80.0" fill="#000000" transform="matrix(1.00, 0.00, -0.00, -1.00, 951.3, 510.0)">e</text><text xml:space="preserve" font-family="HelveticaNeue-Light" font-size="80.0" fill="#000000" transform="matrix(1.00, 0.00, -0.00, -1.00, 992.8, 510.0)"> </text><text xml:space="preserve" font-family="HelveticaNeue-Light" font-size="80.0" fill="#000000" transform="matrix(1.00, 0.00, -0.00, -1.00, 1015.0, 510.0)">o</text><text xml:space="preserve" font-family="HelveticaNeue-Light" font-size="80.0" fill="#000000" transform="matrix(1.00, 0.00, -0.00, -1.00, 1059.5, 510.0)">f</text><text xml:space="preserve" font-family="HelveticaNeue-Light" font-size="80.0" fill="#000000" transform="matrix(1.00, 0.00, -0.00, -1.00, 1080.2, 510.0)"> </text><text xml:space="preserve" font-family="HelveticaNeue-Light" font-size="80.0" fill="#000000" transform="matrix(1.00, 0.00, -0.00, -1.00, 1102.5, 510.0)">J</text><text xml:space="preserve" font-family="HelveticaNeue-Light" font-size="80.0" fill="#000000" transform="matrix(1.00, 0.00, -0.00, -1.00, 1142.5, 510.0)">a</text><text xml:space="preserve" font-family="HelveticaNeue-Light" font-size="80.0" fill="#000000" transform="matrix(1.00, 0.00, -0.00, -1.00, 1184.0, 510.0)">v</text><text xml:space="preserve" font-family="HelveticaNeue-Light" font-size="80.0" fill="#000000" transform="matrix(1.00, 0.00, -0.00, -1.00, 1221.0, 510.0)">a</text><text xml:space="preserve" font-family="HelveticaNeue-Light" font-size="80.0" fill="#000000" transform="matrix(1.00, 0.00, -0.00, -1.00, 1262.6, 510.0)">S</text><text xml:space="preserve" font-family="HelveticaNeue-Light" font-size="80.0" fill="#000000" transform="matrix(1.00, 0.00, -0.00, -1.00, 1313.0, 510.0)">c</text><text xml:space="preserve" font-family="HelveticaNeue-Light" font-size="80.0" fill="#000000" transform="matrix(1.00, 0.00, -0.00, -1.00, 1354.5, 510.0)">r</text><text xml:space="preserve" font-family="HelveticaNeue-Light" font-size="80.0" fill="#000000" transform="matrix(1.00, 0.00, -0.00, -1.00, 1379.7, 510.0)">i</text><text xml:space="preserve" font-family="HelveticaNeue-Light" font-size="80.0" fill="#000000" transform="matrix(1.00, 0.00, -0.00, -1.00, 1394.5, 510.0)">p</text><text xml:space="preserve" font-family="HelveticaNeue-Light" font-size="80.0" fill="#000000" transform="matrix(1.00, 0.00, -0.00, -1.00, 1440.4, 510.0)">t</text><text xml:space="preserve" font-family="HelveticaNeue-Light" font-size="80.0" fill="#000000" transform="matrix(1.00, 0.00, -0.00, -1.00, 1464.1, 510.0)">?</text></g></svg>