<?xml version="1.0" encoding="UTF-8" standalone="no"?><svg xmlns="http://www.w3.org/2000/svg" xmlns:xlink="http://www.w3.org/1999/xlink" clip-rule="evenodd" stroke-miterlimit="4.00" viewBox="0 0 1920 1080"><desc>SVG generated by Keynote</desc><defs></defs><g transform="matrix(1.00, 0.00, -0.00, -1.00, 0.0, 1080.0)"><path d="M 0.0 1080.0 L 1920.0 1080.0 L 1920.0 0.0 L 0.0 0.0 Z M 0.0 1080.0 " fill="#FEFFFE"></path><text xml:space="preserve" font-family="HelveticaNeue-Light" font-size="80.0" fill="#000000" transform="matrix(1.00, 0.00, -0.00, -1.00, 260.0, 510.0)">T</text><text xml:space="preserve" font-family="HelveticaNeue-Light" font-size="80.0" fill="#000000" transform="matrix(1.00, 0.00, -0.00, -1.00, 297.1, 510.0)">r</text><text xml:space="preserve" font-family="HelveticaNeue-Light" font-size="80.0" fill="#000000" transform="matrix(1.00, 0.00, -0.00, -1.00, 322.3, 510.0)">a</text><text xml:space="preserve" font-family="HelveticaNeue-Light" font-size="80.0" fill="#000000" transform="matrix(1.00, 0.00, -0.00, -1.00, 363.8, 510.0)">n</text><text xml:space="preserve" font-family="HelveticaNeue-Light" font-size="80.0" fill="#000000" transform="matrix(1.00, 0.00, -0.00, -1.00, 406.8, 510.0)">s</text><text xml:space="preserve" font-family="HelveticaNeue-Light" font-size="80.0" fill="#000000" transform="matrix(1.00, 0.00, -0.00, -1.00, 445.3, 510.0)">p</text><text xml:space="preserve" font-family="HelveticaNeue-Light" font-size="80.0" fill="#000000" transform="matrix(1.00, 0.00, -0.00, -1.00, 491.2, 510.0)">i</text><text xml:space="preserve" font-family="HelveticaNeue-Light" font-size="80.0" fill="#000000" transform="matrix(1.00, 0.00, -0.00, -1.00, 506.0, 510.0)">l</text><text xml:space="preserve" font-family="HelveticaNeue-Light" font-size="80.0" fill="#000000" transform="matrix(1.00, 0.00, -0.00, -1.00, 520.8, 510.0)">e</text><text xml:space="preserve" font-family="HelveticaNeue-Light" font-size="80.0" fill="#000000" transform="matrix(1.00, 0.00, -0.00, -1.00, 562.3, 510.0)">r</text><text xml:space="preserve" font-family="HelveticaNeue-Light" font-size="80.0" fill="#000000" transform="matrix(1.00, 0.00, -0.00, -1.00, 587.5, 510.0)">?</text><text xml:space="preserve" font-family="HelveticaNeue-Light" font-size="80.0" fill="#000000" transform="matrix(1.00, 0.00, -0.00, -1.00, 938.0, 510.0)">J</text><text xml:space="preserve" font-family="HelveticaNeue-Light" font-size="80.0" fill="#000000" transform="matrix(1.00, 0.00, -0.00, -1.00, 978.0, 510.0)">a</text><text xml:space="preserve" font-family="HelveticaNeue-Light" font-size="80.0" fill="#000000" transform="matrix(1.00, 0.00, -0.00, -1.00, 1019.5, 510.0)">v</text><text xml:space="preserve" font-family="HelveticaNeue-Light" font-size="80.0" fill="#000000" transform="matrix(1.00, 0.00, -0.00, -1.00, 1056.6, 510.0)">a</text><text xml:space="preserve" font-family="HelveticaNeue-Light" font-size="80.0" fill="#000000" transform="matrix(1.00, 0.00, -0.00, -1.00, 1098.1, 510.0)">S</text><text xml:space="preserve" font-family="HelveticaNeue-Light" font-size="80.0" fill="#000000" transform="matrix(1.00, 0.00, -0.00, -1.00, 1148.5, 510.0)">c</text><text xml:space="preserve" font-family="HelveticaNeue-Light" font-size="80.0" fill="#000000" transform="matrix(1.00, 0.00, -0.00, -1.00, 1190.0, 510.0)">r</text><text xml:space="preserve" font-family="HelveticaNeue-Light" font-size="80.0" fill="#000000" transform="matrix(1.00, 0.00, -0.00, -1.00, 1215.2, 510.0)">i</text><text xml:space="preserve" font-family="HelveticaNeue-Light" font-size="80.0" fill="#000000" transform="matrix(1.00, 0.00, -0.00, -1.00, 1230.0, 510.0)">p</text><text xml:space="preserve" font-family="HelveticaNeue-Light" font-size="80.0" fill="#000000" transform="matrix(1.00, 0.00, -0.00, -1.00, 1275.9, 510.0)">t</text><text xml:space="preserve" font-family="HelveticaNeue-Light" font-size="80.0" fill="#000000" transform="matrix(1.00, 0.00, -0.00, -1.00, 1299.6, 510.0)"> </text><text xml:space="preserve" font-family="HelveticaNeue-Light" font-size="80.0" fill="#000000" transform="matrix(1.00, 0.00, -0.00, -1.00, 1321.8, 510.0)">t</text><text xml:space="preserve" font-family="HelveticaNeue-Light" font-size="80.0" fill="#000000" transform="matrix(1.00, 0.00, -0.00, -1.00, 1345.5, 510.0)">o</text><text xml:space="preserve" font-family="HelveticaNeue-Light" font-size="80.0" fill="#000000" transform="matrix(1.00, 0.00, -0.00, -1.00, 1390.0, 510.0)"> </text><text xml:space="preserve" font-family="HelveticaNeue-Light" font-size="80.0" fill="#000000" transform="matrix(1.00, 0.00, -0.00, -1.00, 1412.2, 510.0)">J</text><text xml:space="preserve" font-family="HelveticaNeue-Light" font-size="80.0" fill="#000000" transform="matrix(1.00, 0.00, -0.00, -1.00, 1452.2, 510.0)">a</text><text xml:space="preserve" font-family="HelveticaNeue-Light" font-size="80.0" fill="#000000" transform="matrix(1.00, 0.00, -0.00, -1.00, 1493.8, 510.0)">v</text><text xml:space="preserve" font-family="HelveticaNeue-Light" font-size="80.0" fill="#000000" transform="matrix(1.00, 0.00, -0.00, -1.00, 1530.8, 510.0)">a</text><text xml:space="preserve" font-family="HelveticaNeue-Light" font-size="80.0" fill="#000000" transform="matrix(1.00, 0.00, -0.00, -1.00, 1572.3, 510.0)">S</text><text xml:space="preserve" font-family="HelveticaNeue-Light" font-size="80.0" fill="#000000" transform="matrix(1.00, 0.00, -0.00, -1.00, 1622.7, 510.0)">c</text><text xml:space="preserve" font-family="HelveticaNeue-Light" font-size="80.0" fill="#000000" transform="matrix(1.00, 0.00, -0.00, -1.00, 1664.2, 510.0)">r</text><text xml:space="preserve" font-family="HelveticaNeue-Light" font-size="80.0" fill="#000000" transform="matrix(1.00, 0.00, -0.00, -1.00, 1689.4, 510.0)">i</text><text xml:space="preserve" font-family="HelveticaNeue-Light" font-size="80.0" fill="#000000" transform="matrix(1.00, 0.00, -0.00, -1.00, 1704.2, 510.0)">p</text><text xml:space="preserve" font-family="HelveticaNeue-Light" font-size="80.0" fill="#000000" transform="matrix(1.00, 0.00, -0.00, -1.00, 1750.2, 510.0)">t</text></g></svg>