<?xml version="1.0" encoding="UTF-8" standalone="no"?><svg xmlns="http://www.w3.org/2000/svg" xmlns:xlink="http://www.w3.org/1999/xlink" clip-rule="evenodd" stroke-miterlimit="4.00" viewBox="0 0 1920 1080"><desc>SVG generated by Keynote</desc><defs></defs><g transform="matrix(1.00, 0.00, -0.00, -1.00, 0.0, 1080.0)"><path d="M 0.0 1080.0 L 1920.0 1080.0 L 1920.0 0.0 L 0.0 0.0 Z M 0.0 1080.0 " fill="#FEFFFE"></path><text xml:space="preserve" font-family="HelveticaNeue-Light" font-size="70.0" fill="#000000" transform="matrix(1.00, 0.00, -0.00, -1.00, 167.0, 513.0)">H</text><text xml:space="preserve" font-family="HelveticaNeue-Light" font-size="70.0" fill="#000000" transform="matrix(1.00, 0.00, -0.00, -1.00, 216.3, 513.0)">o</text><text xml:space="preserve" font-family="HelveticaNeue-Light" font-size="70.0" fill="#000000" transform="matrix(1.00, 0.00, -0.00, -1.00, 255.2, 513.0)">w</text><text xml:space="preserve" font-family="HelveticaNeue-Light" font-size="70.0" fill="#000000" transform="matrix(1.00, 0.00, -0.00, -1.00, 307.1, 513.0)"> </text><text xml:space="preserve" font-family="HelveticaNeue-Light" font-size="70.0" fill="#000000" transform="matrix(1.00, 0.00, -0.00, -1.00, 326.5, 513.0)">d</text><text xml:space="preserve" font-family="HelveticaNeue-Light" font-size="70.0" fill="#000000" transform="matrix(1.00, 0.00, -0.00, -1.00, 366.7, 513.0)">o</text><text xml:space="preserve" font-family="HelveticaNeue-Light" font-size="70.0" fill="#000000" transform="matrix(1.00, 0.00, -0.00, -1.00, 405.6, 513.0)">e</text><text xml:space="preserve" font-family="HelveticaNeue-Light" font-size="70.0" fill="#000000" transform="matrix(1.00, 0.00, -0.00, -1.00, 442.0, 513.0)">s</text><text xml:space="preserve" font-family="HelveticaNeue-Light" font-size="70.0" fill="#000000" transform="matrix(1.00, 0.00, -0.00, -1.00, 475.6, 513.0)"> </text><text xml:space="preserve" font-family="HelveticaNeue-Light" font-size="70.0" fill="#000000" transform="matrix(1.00, 0.00, -0.00, -1.00, 495.1, 513.0)">i</text><text xml:space="preserve" font-family="HelveticaNeue-Light" font-size="70.0" fill="#000000" transform="matrix(1.00, 0.00, -0.00, -1.00, 508.0, 513.0)">t</text><text xml:space="preserve" font-family="HelveticaNeue-Light" font-size="70.0" fill="#000000" transform="matrix(1.00, 0.00, -0.00, -1.00, 528.8, 513.0)"> </text><text xml:space="preserve" font-family="HelveticaNeue-Light" font-size="70.0" fill="#000000" transform="matrix(1.00, 0.00, -0.00, -1.00, 548.2, 513.0)">w</text><text xml:space="preserve" font-family="HelveticaNeue-Light" font-size="70.0" fill="#000000" transform="matrix(1.00, 0.00, -0.00, -1.00, 600.1, 513.0)">o</text><text xml:space="preserve" font-family="HelveticaNeue-Light" font-size="70.0" fill="#000000" transform="matrix(1.00, 0.00, -0.00, -1.00, 639.0, 513.0)">r</text><text xml:space="preserve" font-family="HelveticaNeue-Light" font-size="70.0" fill="#000000" transform="matrix(1.00, 0.00, -0.00, -1.00, 661.1, 513.0)">k</text><text xml:space="preserve" font-family="HelveticaNeue-Light" font-size="70.0" fill="#000000" transform="matrix(1.00, 0.00, -0.00, -1.00, 696.1, 513.0)">?</text></g></svg>