<?xml version="1.0" encoding="UTF-8" standalone="no"?><svg xmlns="http://www.w3.org/2000/svg" xmlns:xlink="http://www.w3.org/1999/xlink" clip-rule="evenodd" stroke-miterlimit="4.00" viewBox="0 0 1920 1080"><desc>SVG generated by Keynote</desc><defs></defs><g transform="matrix(1.00, 0.00, -0.00, -1.00, 0.0, 1080.0)"><path d="M 0.0 1080.0 L 1920.0 1080.0 L 1920.0 0.0 L 0.0 0.0 Z M 0.0 1080.0 " fill="#FEFFFE"></path><text xml:space="preserve" font-family="HelveticaNeue-Light" font-size="105.0" fill="#000000" transform="matrix(1.00, 0.00, -0.00, -1.00, 199.0, 500.0)">A</text><text xml:space="preserve" font-family="HelveticaNeue-Light" font-size="105.0" fill="#000000" transform="matrix(1.00, 0.00, -0.00, -1.00, 265.1, 500.0)">S</text><text xml:space="preserve" font-family="HelveticaNeue-Light" font-size="105.0" fill="#000000" transform="matrix(1.00, 0.00, -0.00, -1.00, 331.3, 500.0)">T</text><text xml:space="preserve" font-family="HelveticaNeue-Light" font-size="105.0" fill="#000000" transform="matrix(1.00, 0.00, -0.00, -1.00, 389.7, 500.0)">E</text><text xml:space="preserve" font-family="HelveticaNeue-Light" font-size="105.0" fill="#000000" transform="matrix(1.00, 0.00, -0.00, -1.00, 451.9, 500.0)">x</text><text xml:space="preserve" font-family="HelveticaNeue-Light" font-size="105.0" fill="#000000" transform="matrix(1.00, 0.00, -0.00, -1.00, 502.4, 500.0)">p</text><text xml:space="preserve" font-family="HelveticaNeue-Light" font-size="105.0" fill="#000000" transform="matrix(1.00, 0.00, -0.00, -1.00, 562.7, 500.0)">l</text><text xml:space="preserve" font-family="HelveticaNeue-Light" font-size="105.0" fill="#000000" transform="matrix(1.00, 0.00, -0.00, -1.00, 582.1, 500.0)">o</text><text xml:space="preserve" font-family="HelveticaNeue-Light" font-size="105.0" fill="#000000" transform="matrix(1.00, 0.00, -0.00, -1.00, 640.5, 500.0)">r</text><text xml:space="preserve" font-family="HelveticaNeue-Light" font-size="105.0" fill="#000000" transform="matrix(1.00, 0.00, -0.00, -1.00, 671.7, 500.0)">e</text><text xml:space="preserve" font-family="HelveticaNeue-Light" font-size="105.0" fill="#000000" transform="matrix(1.00, 0.00, -0.00, -1.00, 726.2, 500.0)">r</text><text xml:space="preserve" font-family="HelveticaNeue-Light" font-size="105.0" fill="#000000" transform="matrix(1.00, 0.00, -0.00, -1.00, 749.6, 500.0)">.</text><text xml:space="preserve" font-family="HelveticaNeue-Light" font-size="105.0" fill="#000000" transform="matrix(1.00, 0.00, -0.00, -1.00, 778.8, 500.0)">n</text><text xml:space="preserve" font-family="HelveticaNeue-Light" font-size="105.0" fill="#000000" transform="matrix(1.00, 0.00, -0.00, -1.00, 835.2, 500.0)">e</text><text xml:space="preserve" font-family="HelveticaNeue-Light" font-size="105.0" fill="#000000" transform="matrix(1.00, 0.00, -0.00, -1.00, 889.7, 500.0)">t</text><g><clipPath id="clip-149"><path d="M 197.6 486.3 L 920.4 486.3 L 920.4 493.5 L 197.6 493.5 Z M 197.6 486.3 "></path></clipPath><g clip-path="url(#clip-149)"><path d="M 6.1 117.7 L 727.9 117.7 " fill="none" stroke="#000000" stroke-width="5.25" stroke-miterlimit="0.00" transform="matrix(1.00, 0.00, 0.00, -1.00, 192.5, 607.6)"></path></g></g><image xlink:href="../../CC985B39-C7DE-4899-AED9-9F9425762FC1/assets/8BEF407641A3891031820004134762EB.png" width="318.00" height="541.00" transform="matrix(1.93, 0.00, -0.00, -1.93, 1102.0, 1063.0)"></image></g></svg>