<?xml version="1.0" encoding="UTF-8" standalone="no"?><svg xmlns="http://www.w3.org/2000/svg" xmlns:xlink="http://www.w3.org/1999/xlink" clip-rule="evenodd" stroke-miterlimit="4.00" viewBox="0 0 907 131"><desc>SVG generated by Keynote</desc><defs></defs><g transform="matrix(1.00, 0.00, -0.00, -1.00, 0.0, 131.0)"><text xml:space="preserve" font-family="HelveticaNeue-Light" font-size="60.0" fill="#E9EBEB" transform="matrix(1.00, 0.00, -0.00, -1.00, 185.0, 87.0)">“</text><text xml:space="preserve" font-family="HelveticaNeue-Light" font-size="60.0" fill="#E9EBEB" transform="matrix(1.00, 0.00, -0.00, -1.00, 207.2, 87.0)">X</text><text xml:space="preserve" font-family="HelveticaNeue-Light" font-size="60.0" fill="#E9EBEB" transform="matrix(1.00, 0.00, -0.00, -1.00, 241.6, 87.0)">M</text><text xml:space="preserve" font-family="HelveticaNeue-Light" font-size="60.0" fill="#E9EBEB" transform="matrix(1.00, 0.00, -0.00, -1.00, 290.9, 87.0)">L</text><text xml:space="preserve" font-family="HelveticaNeue-Light" font-size="60.0" fill="#E9EBEB" transform="matrix(1.00, 0.00, -0.00, -1.00, 323.1, 87.0)">-</text><text xml:space="preserve" font-family="HelveticaNeue-Light" font-size="60.0" fill="#E9EBEB" transform="matrix(1.00, 0.00, -0.00, -1.00, 345.3, 87.0)">l</text><text xml:space="preserve" font-family="HelveticaNeue-Light" font-size="60.0" fill="#E9EBEB" transform="matrix(1.00, 0.00, -0.00, -1.00, 356.4, 87.0)">i</text><text xml:space="preserve" font-family="HelveticaNeue-Light" font-size="60.0" fill="#E9EBEB" transform="matrix(1.00, 0.00, -0.00, -1.00, 367.5, 87.0)">k</text><text xml:space="preserve" font-family="HelveticaNeue-Light" font-size="60.0" fill="#E9EBEB" transform="matrix(1.00, 0.00, -0.00, -1.00, 397.5, 87.0)">e</text><text xml:space="preserve" font-family="HelveticaNeue-Light" font-size="60.0" fill="#E9EBEB" transform="matrix(1.00, 0.00, -0.00, -1.00, 428.7, 87.0)"> </text><text xml:space="preserve" font-family="HelveticaNeue-Light" font-size="60.0" fill="#E9EBEB" transform="matrix(1.00, 0.00, -0.00, -1.00, 445.3, 87.0)">e</text><text xml:space="preserve" font-family="HelveticaNeue-Light" font-size="60.0" fill="#E9EBEB" transform="matrix(1.00, 0.00, -0.00, -1.00, 476.5, 87.0)">x</text><text xml:space="preserve" font-family="HelveticaNeue-Light" font-size="60.0" fill="#E9EBEB" transform="matrix(1.00, 0.00, -0.00, -1.00, 505.3, 87.0)">p</text><text xml:space="preserve" font-family="HelveticaNeue-Light" font-size="60.0" fill="#E9EBEB" transform="matrix(1.00, 0.00, -0.00, -1.00, 539.8, 87.0)">r</text><text xml:space="preserve" font-family="HelveticaNeue-Light" font-size="60.0" fill="#E9EBEB" transform="matrix(1.00, 0.00, -0.00, -1.00, 557.6, 87.0)">e</text><text xml:space="preserve" font-family="HelveticaNeue-Light" font-size="60.0" fill="#E9EBEB" transform="matrix(1.00, 0.00, -0.00, -1.00, 588.7, 87.0)">s</text><text xml:space="preserve" font-family="HelveticaNeue-Light" font-size="60.0" fill="#E9EBEB" transform="matrix(1.00, 0.00, -0.00, -1.00, 617.6, 87.0)">s</text><text xml:space="preserve" font-family="HelveticaNeue-Light" font-size="60.0" fill="#E9EBEB" transform="matrix(1.00, 0.00, -0.00, -1.00, 646.5, 87.0)">i</text><text xml:space="preserve" font-family="HelveticaNeue-Light" font-size="60.0" fill="#E9EBEB" transform="matrix(1.00, 0.00, -0.00, -1.00, 657.6, 87.0)">o</text><text xml:space="preserve" font-family="HelveticaNeue-Light" font-size="60.0" fill="#E9EBEB" transform="matrix(1.00, 0.00, -0.00, -1.00, 690.9, 87.0)">n</text><text xml:space="preserve" font-family="HelveticaNeue-Light" font-size="60.0" fill="#E9EBEB" transform="matrix(1.00, 0.00, -0.00, -1.00, 723.1, 87.0)"> </text><text xml:space="preserve" font-family="HelveticaNeue-Light" font-size="60.0" fill="#E9EBEB" transform="matrix(1.00, 0.00, -0.00, -1.00, -1.0, 14.0)">c</text><text xml:space="preserve" font-family="HelveticaNeue-Light" font-size="60.0" fill="#E9EBEB" transform="matrix(1.00, 0.00, -0.00, -1.00, 30.1, 14.0)">o</text><text xml:space="preserve" font-family="HelveticaNeue-Light" font-size="60.0" fill="#E9EBEB" transform="matrix(1.00, 0.00, -0.00, -1.00, 63.5, 14.0)">m</text><text xml:space="preserve" font-family="HelveticaNeue-Light" font-size="60.0" fill="#E9EBEB" transform="matrix(1.00, 0.00, -0.00, -1.00, 113.5, 14.0)">p</text><text xml:space="preserve" font-family="HelveticaNeue-Light" font-size="60.0" fill="#E9EBEB" transform="matrix(1.00, 0.00, -0.00, -1.00, 147.9, 14.0)">i</text><text xml:space="preserve" font-family="HelveticaNeue-Light" font-size="60.0" fill="#E9EBEB" transform="matrix(1.00, 0.00, -0.00, -1.00, 159.0, 14.0)">l</text><text xml:space="preserve" font-family="HelveticaNeue-Light" font-size="60.0" fill="#E9EBEB" transform="matrix(1.00, 0.00, -0.00, -1.00, 170.1, 14.0)">e</text><text xml:space="preserve" font-family="HelveticaNeue-Light" font-size="60.0" fill="#E9EBEB" transform="matrix(1.00, 0.00, -0.00, -1.00, 201.3, 14.0)">d</text><text xml:space="preserve" font-family="HelveticaNeue-Light" font-size="60.0" fill="#E9EBEB" transform="matrix(1.00, 0.00, -0.00, -1.00, 235.7, 14.0)"> </text><text xml:space="preserve" font-family="HelveticaNeue-Light" font-size="60.0" fill="#E9EBEB" transform="matrix(1.00, 0.00, -0.00, -1.00, 252.4, 14.0)">t</text><text xml:space="preserve" font-family="HelveticaNeue-Light" font-size="60.0" fill="#E9EBEB" transform="matrix(1.00, 0.00, -0.00, -1.00, 270.1, 14.0)">o</text><text xml:space="preserve" font-family="HelveticaNeue-Light" font-size="60.0" fill="#E9EBEB" transform="matrix(1.00, 0.00, -0.00, -1.00, 303.5, 14.0)"> </text><text xml:space="preserve" font-family="HelveticaNeue-Light" font-size="60.0" fill="#E9EBEB" transform="matrix(1.00, 0.00, -0.00, -1.00, 320.2, 14.0)">a</text><text xml:space="preserve" font-family="HelveticaNeue-Light" font-size="60.0" fill="#E9EBEB" transform="matrix(1.00, 0.00, -0.00, -1.00, 351.3, 14.0)"> </text><text xml:space="preserve" font-family="HelveticaNeue-Light" font-size="60.0" fill="#E9EBEB" transform="matrix(1.00, 0.00, -0.00, -1.00, 368.0, 14.0)">f</text><text xml:space="preserve" font-family="HelveticaNeue-Light" font-size="60.0" fill="#E9EBEB" transform="matrix(1.00, 0.00, -0.00, -1.00, 383.5, 14.0)">u</text><text xml:space="preserve" font-family="HelveticaNeue-Light" font-size="60.0" fill="#E9EBEB" transform="matrix(1.00, 0.00, -0.00, -1.00, 415.8, 14.0)">n</text><text xml:space="preserve" font-family="HelveticaNeue-Light" font-size="60.0" fill="#E9EBEB" transform="matrix(1.00, 0.00, -0.00, -1.00, 448.0, 14.0)">c</text><text xml:space="preserve" font-family="HelveticaNeue-Light" font-size="60.0" fill="#E9EBEB" transform="matrix(1.00, 0.00, -0.00, -1.00, 479.1, 14.0)">t</text><text xml:space="preserve" font-family="HelveticaNeue-Light" font-size="60.0" fill="#E9EBEB" transform="matrix(1.00, 0.00, -0.00, -1.00, 496.9, 14.0)">i</text><text xml:space="preserve" font-family="HelveticaNeue-Light" font-size="60.0" fill="#E9EBEB" transform="matrix(1.00, 0.00, -0.00, -1.00, 508.0, 14.0)">o</text><text xml:space="preserve" font-family="HelveticaNeue-Light" font-size="60.0" fill="#E9EBEB" transform="matrix(1.00, 0.00, -0.00, -1.00, 541.3, 14.0)">n</text><text xml:space="preserve" font-family="HelveticaNeue-Light" font-size="60.0" fill="#E9EBEB" transform="matrix(1.00, 0.00, -0.00, -1.00, 573.6, 14.0)"> </text><text xml:space="preserve" font-family="HelveticaNeue-Light" font-size="60.0" fill="#E9EBEB" transform="matrix(1.00, 0.00, -0.00, -1.00, 590.2, 14.0)">c</text><text xml:space="preserve" font-family="HelveticaNeue-Light" font-size="60.0" fill="#E9EBEB" transform="matrix(1.00, 0.00, -0.00, -1.00, 621.4, 14.0)">a</text><text xml:space="preserve" font-family="HelveticaNeue-Light" font-size="60.0" fill="#E9EBEB" transform="matrix(1.00, 0.00, -0.00, -1.00, 652.5, 14.0)">l</text><text xml:space="preserve" font-family="HelveticaNeue-Light" font-size="60.0" fill="#E9EBEB" transform="matrix(1.00, 0.00, -0.00, -1.00, 663.6, 14.0)">l</text><text xml:space="preserve" font-family="HelveticaNeue-Light" font-size="60.0" fill="#E9EBEB" transform="matrix(1.00, 0.00, -0.00, -1.00, 674.7, 14.0)">”</text><text xml:space="preserve" font-family="HelveticaNeue-Light" font-size="60.0" fill="#E9EBEB" transform="matrix(1.00, 0.00, -0.00, -1.00, 696.9, 14.0)"> </text><text xml:space="preserve" font-family="HelveticaNeue-Light" font-size="60.0" fill="#E9EBEB" transform="matrix(1.00, 0.00, -0.00, -1.00, 713.6, 14.0)">-</text><text xml:space="preserve" font-family="HelveticaNeue-Light" font-size="60.0" fill="#E9EBEB" transform="matrix(1.00, 0.00, -0.00, -1.00, 735.8, 14.0)"> </text><text xml:space="preserve" font-family="HelveticaNeue-Light" font-size="60.0" fill="#E9EBEB" transform="matrix(1.00, 0.00, -0.00, -1.00, 752.5, 14.0)">J</text><text xml:space="preserve" font-family="HelveticaNeue-Light" font-size="60.0" fill="#E9EBEB" transform="matrix(1.00, 0.00, -0.00, -1.00, 782.5, 14.0)">a</text><text xml:space="preserve" font-family="HelveticaNeue-Light" font-size="60.0" fill="#E9EBEB" transform="matrix(1.00, 0.00, -0.00, -1.00, 813.6, 14.0)">s</text><text xml:space="preserve" font-family="HelveticaNeue-Light" font-size="60.0" fill="#E9EBEB" transform="matrix(1.00, 0.00, -0.00, -1.00, 842.5, 14.0)">o</text><text xml:space="preserve" font-family="HelveticaNeue-Light" font-size="60.0" fill="#E9EBEB" transform="matrix(1.00, 0.00, -0.00, -1.00, 875.8, 14.0)">n</text></g></svg>