<?xml version="1.0" encoding="UTF-8" standalone="no"?><svg xmlns="http://www.w3.org/2000/svg" xmlns:xlink="http://www.w3.org/1999/xlink" clip-rule="evenodd" stroke-miterlimit="4.00" viewBox="0 0 1920 1080"><desc>SVG generated by Keynote</desc><defs></defs><g transform="matrix(1.00, 0.00, -0.00, -1.00, 0.0, 1080.0)"><path d="M 0.0 1080.0 L 1920.0 1080.0 L 1920.0 0.0 L 0.0 0.0 Z M 0.0 1080.0 " fill="#1C1F22"></path><image xlink:href="../../21FA2D3F-5388-4C12-AE38-BAF75A947115/assets/D8E5DE10C765A488972FA8B9C718A11C.png" width="754.00" height="342.00" transform="matrix(1.51, 0.00, -0.00, -1.51, 27.0, 921.0)"></image><image xlink:href="../../21FA2D3F-5388-4C12-AE38-BAF75A947115/assets/CD1C82245DB39796182AE4F995A88137.png" width="960.00" height="505.00" transform="matrix(1.09, 0.00, -0.00, -1.09, 818.0, 587.0)"></image><text xml:space="preserve" font-family="HelveticaNeue-Light" font-size="60.0" fill="#E9EBEB" transform="matrix(1.00, 0.00, -0.00, -1.00, 691.0, 986.0)">“</text><text xml:space="preserve" font-family="HelveticaNeue-Light" font-size="60.0" fill="#E9EBEB" transform="matrix(1.00, 0.00, -0.00, -1.00, 713.2, 986.0)">X</text><text xml:space="preserve" font-family="HelveticaNeue-Light" font-size="60.0" fill="#E9EBEB" transform="matrix(1.00, 0.00, -0.00, -1.00, 747.6, 986.0)">M</text><text xml:space="preserve" font-family="HelveticaNeue-Light" font-size="60.0" fill="#E9EBEB" transform="matrix(1.00, 0.00, -0.00, -1.00, 796.9, 986.0)">L</text><text xml:space="preserve" font-family="HelveticaNeue-Light" font-size="60.0" fill="#E9EBEB" transform="matrix(1.00, 0.00, -0.00, -1.00, 829.1, 986.0)">-</text><text xml:space="preserve" font-family="HelveticaNeue-Light" font-size="60.0" fill="#E9EBEB" transform="matrix(1.00, 0.00, -0.00, -1.00, 851.3, 986.0)">l</text><text xml:space="preserve" font-family="HelveticaNeue-Light" font-size="60.0" fill="#E9EBEB" transform="matrix(1.00, 0.00, -0.00, -1.00, 862.4, 986.0)">i</text><text xml:space="preserve" font-family="HelveticaNeue-Light" font-size="60.0" fill="#E9EBEB" transform="matrix(1.00, 0.00, -0.00, -1.00, 873.5, 986.0)">k</text><text xml:space="preserve" font-family="HelveticaNeue-Light" font-size="60.0" fill="#E9EBEB" transform="matrix(1.00, 0.00, -0.00, -1.00, 903.5, 986.0)">e</text><text xml:space="preserve" font-family="HelveticaNeue-Light" font-size="60.0" fill="#E9EBEB" transform="matrix(1.00, 0.00, -0.00, -1.00, 934.7, 986.0)"> </text><text xml:space="preserve" font-family="HelveticaNeue-Light" font-size="60.0" fill="#E9EBEB" transform="matrix(1.00, 0.00, -0.00, -1.00, 951.3, 986.0)">e</text><text xml:space="preserve" font-family="HelveticaNeue-Light" font-size="60.0" fill="#E9EBEB" transform="matrix(1.00, 0.00, -0.00, -1.00, 982.5, 986.0)">x</text><text xml:space="preserve" font-family="HelveticaNeue-Light" font-size="60.0" fill="#E9EBEB" transform="matrix(1.00, 0.00, -0.00, -1.00, 1011.3, 986.0)">p</text><text xml:space="preserve" font-family="HelveticaNeue-Light" font-size="60.0" fill="#E9EBEB" transform="matrix(1.00, 0.00, -0.00, -1.00, 1045.8, 986.0)">r</text><text xml:space="preserve" font-family="HelveticaNeue-Light" font-size="60.0" fill="#E9EBEB" transform="matrix(1.00, 0.00, -0.00, -1.00, 1063.6, 986.0)">e</text><text xml:space="preserve" font-family="HelveticaNeue-Light" font-size="60.0" fill="#E9EBEB" transform="matrix(1.00, 0.00, -0.00, -1.00, 1094.7, 986.0)">s</text><text xml:space="preserve" font-family="HelveticaNeue-Light" font-size="60.0" fill="#E9EBEB" transform="matrix(1.00, 0.00, -0.00, -1.00, 1123.6, 986.0)">s</text><text xml:space="preserve" font-family="HelveticaNeue-Light" font-size="60.0" fill="#E9EBEB" transform="matrix(1.00, 0.00, -0.00, -1.00, 1152.5, 986.0)">i</text><text xml:space="preserve" font-family="HelveticaNeue-Light" font-size="60.0" fill="#E9EBEB" transform="matrix(1.00, 0.00, -0.00, -1.00, 1163.6, 986.0)">o</text><text xml:space="preserve" font-family="HelveticaNeue-Light" font-size="60.0" fill="#E9EBEB" transform="matrix(1.00, 0.00, -0.00, -1.00, 1196.9, 986.0)">n</text><text xml:space="preserve" font-family="HelveticaNeue-Light" font-size="60.0" fill="#E9EBEB" transform="matrix(1.00, 0.00, -0.00, -1.00, 1229.1, 986.0)"> </text><text xml:space="preserve" font-family="HelveticaNeue-Light" font-size="60.0" fill="#E9EBEB" transform="matrix(1.00, 0.00, -0.00, -1.00, 505.0, 913.0)">c</text><text xml:space="preserve" font-family="HelveticaNeue-Light" font-size="60.0" fill="#E9EBEB" transform="matrix(1.00, 0.00, -0.00, -1.00, 536.1, 913.0)">o</text><text xml:space="preserve" font-family="HelveticaNeue-Light" font-size="60.0" fill="#E9EBEB" transform="matrix(1.00, 0.00, -0.00, -1.00, 569.5, 913.0)">m</text><text xml:space="preserve" font-family="HelveticaNeue-Light" font-size="60.0" fill="#E9EBEB" transform="matrix(1.00, 0.00, -0.00, -1.00, 619.5, 913.0)">p</text><text xml:space="preserve" font-family="HelveticaNeue-Light" font-size="60.0" fill="#E9EBEB" transform="matrix(1.00, 0.00, -0.00, -1.00, 653.9, 913.0)">i</text><text xml:space="preserve" font-family="HelveticaNeue-Light" font-size="60.0" fill="#E9EBEB" transform="matrix(1.00, 0.00, -0.00, -1.00, 665.0, 913.0)">l</text><text xml:space="preserve" font-family="HelveticaNeue-Light" font-size="60.0" fill="#E9EBEB" transform="matrix(1.00, 0.00, -0.00, -1.00, 676.1, 913.0)">e</text><text xml:space="preserve" font-family="HelveticaNeue-Light" font-size="60.0" fill="#E9EBEB" transform="matrix(1.00, 0.00, -0.00, -1.00, 707.3, 913.0)">d</text><text xml:space="preserve" font-family="HelveticaNeue-Light" font-size="60.0" fill="#E9EBEB" transform="matrix(1.00, 0.00, -0.00, -1.00, 741.7, 913.0)"> </text><text xml:space="preserve" font-family="HelveticaNeue-Light" font-size="60.0" fill="#E9EBEB" transform="matrix(1.00, 0.00, -0.00, -1.00, 758.4, 913.0)">t</text><text xml:space="preserve" font-family="HelveticaNeue-Light" font-size="60.0" fill="#E9EBEB" transform="matrix(1.00, 0.00, -0.00, -1.00, 776.1, 913.0)">o</text><text xml:space="preserve" font-family="HelveticaNeue-Light" font-size="60.0" fill="#E9EBEB" transform="matrix(1.00, 0.00, -0.00, -1.00, 809.5, 913.0)"> </text><text xml:space="preserve" font-family="HelveticaNeue-Light" font-size="60.0" fill="#E9EBEB" transform="matrix(1.00, 0.00, -0.00, -1.00, 826.2, 913.0)">a</text><text xml:space="preserve" font-family="HelveticaNeue-Light" font-size="60.0" fill="#E9EBEB" transform="matrix(1.00, 0.00, -0.00, -1.00, 857.3, 913.0)"> </text><text xml:space="preserve" font-family="HelveticaNeue-Light" font-size="60.0" fill="#E9EBEB" transform="matrix(1.00, 0.00, -0.00, -1.00, 874.0, 913.0)">f</text><text xml:space="preserve" font-family="HelveticaNeue-Light" font-size="60.0" fill="#E9EBEB" transform="matrix(1.00, 0.00, -0.00, -1.00, 889.5, 913.0)">u</text><text xml:space="preserve" font-family="HelveticaNeue-Light" font-size="60.0" fill="#E9EBEB" transform="matrix(1.00, 0.00, -0.00, -1.00, 921.8, 913.0)">n</text><text xml:space="preserve" font-family="HelveticaNeue-Light" font-size="60.0" fill="#E9EBEB" transform="matrix(1.00, 0.00, -0.00, -1.00, 954.0, 913.0)">c</text><text xml:space="preserve" font-family="HelveticaNeue-Light" font-size="60.0" fill="#E9EBEB" transform="matrix(1.00, 0.00, -0.00, -1.00, 985.1, 913.0)">t</text><text xml:space="preserve" font-family="HelveticaNeue-Light" font-size="60.0" fill="#E9EBEB" transform="matrix(1.00, 0.00, -0.00, -1.00, 1002.9, 913.0)">i</text><text xml:space="preserve" font-family="HelveticaNeue-Light" font-size="60.0" fill="#E9EBEB" transform="matrix(1.00, 0.00, -0.00, -1.00, 1014.0, 913.0)">o</text><text xml:space="preserve" font-family="HelveticaNeue-Light" font-size="60.0" fill="#E9EBEB" transform="matrix(1.00, 0.00, -0.00, -1.00, 1047.3, 913.0)">n</text><text xml:space="preserve" font-family="HelveticaNeue-Light" font-size="60.0" fill="#E9EBEB" transform="matrix(1.00, 0.00, -0.00, -1.00, 1079.6, 913.0)"> </text><text xml:space="preserve" font-family="HelveticaNeue-Light" font-size="60.0" fill="#E9EBEB" transform="matrix(1.00, 0.00, -0.00, -1.00, 1096.2, 913.0)">c</text><text xml:space="preserve" font-family="HelveticaNeue-Light" font-size="60.0" fill="#E9EBEB" transform="matrix(1.00, 0.00, -0.00, -1.00, 1127.4, 913.0)">a</text><text xml:space="preserve" font-family="HelveticaNeue-Light" font-size="60.0" fill="#E9EBEB" transform="matrix(1.00, 0.00, -0.00, -1.00, 1158.5, 913.0)">l</text><text xml:space="preserve" font-family="HelveticaNeue-Light" font-size="60.0" fill="#E9EBEB" transform="matrix(1.00, 0.00, -0.00, -1.00, 1169.6, 913.0)">l</text><text xml:space="preserve" font-family="HelveticaNeue-Light" font-size="60.0" fill="#E9EBEB" transform="matrix(1.00, 0.00, -0.00, -1.00, 1180.7, 913.0)">”</text><text xml:space="preserve" font-family="HelveticaNeue-Light" font-size="60.0" fill="#E9EBEB" transform="matrix(1.00, 0.00, -0.00, -1.00, 1202.9, 913.0)"> </text><text xml:space="preserve" font-family="HelveticaNeue-Light" font-size="60.0" fill="#E9EBEB" transform="matrix(1.00, 0.00, -0.00, -1.00, 1219.6, 913.0)">-</text><text xml:space="preserve" font-family="HelveticaNeue-Light" font-size="60.0" fill="#E9EBEB" transform="matrix(1.00, 0.00, -0.00, -1.00, 1241.8, 913.0)"> </text><text xml:space="preserve" font-family="HelveticaNeue-Light" font-size="60.0" fill="#E9EBEB" transform="matrix(1.00, 0.00, -0.00, -1.00, 1258.5, 913.0)">J</text><text xml:space="preserve" font-family="HelveticaNeue-Light" font-size="60.0" fill="#E9EBEB" transform="matrix(1.00, 0.00, -0.00, -1.00, 1288.5, 913.0)">a</text><text xml:space="preserve" font-family="HelveticaNeue-Light" font-size="60.0" fill="#E9EBEB" transform="matrix(1.00, 0.00, -0.00, -1.00, 1319.6, 913.0)">s</text><text xml:space="preserve" font-family="HelveticaNeue-Light" font-size="60.0" fill="#E9EBEB" transform="matrix(1.00, 0.00, -0.00, -1.00, 1348.5, 913.0)">o</text><text xml:space="preserve" font-family="HelveticaNeue-Light" font-size="60.0" fill="#E9EBEB" transform="matrix(1.00, 0.00, -0.00, -1.00, 1381.8, 913.0)">n</text><path d="M 0.0 0.0 L 458.4 0.0 L 462.4 0.0 " fill="none" stroke="#ABABAB" stroke-width="8.00" transform="matrix(0.99, -0.13, -0.13, -0.99, 449.3, 465.6)"></path><path d="M 901.4 388.4 L 934.4 399.7 L 905.6 419.3 Z M 901.4 388.4 " fill="#ABABAB"></path><path d="M 0.0 0.0 L 623.5 0.0 L 627.5 0.0 " fill="none" stroke="#ABABAB" stroke-width="8.00" transform="matrix(0.81, -0.58, -0.58, -0.81, 869.1, 729.0)"></path><path d="M 1366.8 353.2 L 1401.3 347.7 L 1385.0 378.6 Z M 1366.8 353.2 " fill="#ABABAB"></path><path d="M 0.0 0.0 L 487.8 0.0 L 491.8 0.0 " fill="none" stroke="#ABABAB" stroke-width="8.00" transform="matrix(0.66, -0.75, -0.75, -0.66, 584.5, 601.0)"></path><path d="M 893.0 222.8 L 925.2 209.5 L 916.5 243.2 Z M 893.0 222.8 " fill="#ABABAB"></path></g></svg>